<svg xmlns="http://www.w3.org/2000/svg" viewBox="0 0 88 88"><defs><style>.cls-1{fill:#f67b00;}.cls-2{fill:none;}</style></defs><g id="Capa_2" data-name="Capa 2"><g id="Capa_3_copia_10" data-name="Capa 3 copia 10"><path class="cls-1" d="M44,16a25,25,0,0,0-4.89,49.57v-.18L37.7,62.45a22.3,22.3,0,1,1,26.61-12,1.33,1.33,0,0,0,2.42,1.12A24.81,24.81,0,0,0,69,41,25.07,25.07,0,0,0,44,16Z"/><path class="cls-1" d="M52.77,54.92a16.51,16.51,0,1,0-9.36,2.53l-1.18-1.53a2.67,2.67,0,0,1-.47-2.54,3.51,3.51,0,0,1,.3-.7A16.84,16.84,0,0,1,40.82,49a26.29,26.29,0,0,1,3.12-.24A17.09,17.09,0,0,1,47,49c-.12.59-.29,1.12-.41,1.65a2.48,2.48,0,0,1,.65-.12,3,3,0,0,1,1.94.77,12.59,12.59,0,0,0,.47-1.77,18.15,18.15,0,0,1,3.65,1.59,14.56,14.56,0,0,1-2.47,1.82Zm4.95-15.25H50.59A39.39,39.39,0,0,0,50.18,35a18.83,18.83,0,0,0,5-2.18A14.11,14.11,0,0,1,57.72,39.67ZM44,27.19c.82,0,2.24,2,3.06,5.82a26.27,26.27,0,0,1-3.06.24A27.3,27.3,0,0,1,40.88,33C41.76,29.25,43.18,27.19,44,27.19ZM32.87,32.9a18.83,18.83,0,0,0,5,2.18,38.29,38.29,0,0,0-.41,4.65H30.28A13.67,13.67,0,0,1,32.87,32.9Zm-2.59,9.48h7.19A37.54,37.54,0,0,0,37.88,47a18.81,18.81,0,0,0-5,2.17A13.58,13.58,0,0,1,30.28,42.38Zm4.42,8.77a16.78,16.78,0,0,1,3.65-1.59,19.81,19.81,0,0,0,1.59,4.59A12.65,12.65,0,0,1,34.7,51.15Zm3.59-18.72a19.36,19.36,0,0,1-3.65-1.59,14.13,14.13,0,0,1,5.24-3.07A22.49,22.49,0,0,0,38.29,32.43Zm9.3,14a21.63,21.63,0,0,0-7.18,0,37.05,37.05,0,0,1-.35-4.06h7.77A39.13,39.13,0,0,1,47.59,46.38Zm-7.48-6.71a39.77,39.77,0,0,1,.36-4.07,21.63,21.63,0,0,0,7.18,0A39.9,39.9,0,0,1,48,39.67Zm8-11.84a12.77,12.77,0,0,1,5.24,3.06,15.78,15.78,0,0,1-3.65,1.59A20.36,20.36,0,0,0,48.12,27.83ZM50.18,47a38.29,38.29,0,0,0,.41-4.65h7.19a13.93,13.93,0,0,1-2.59,6.83A19.8,19.8,0,0,0,50.18,47Z"/><path class="cls-1" d="M57.31,57l-4.42,1.42-5.3-5.36a.48.48,0,0,0-.41-.12l-2.83.89a.37.37,0,0,0-.17.58l4.29,5.48L44,61.8l-1.47-1.64a.36.36,0,0,0-.41-.12l-2.06.65a.36.36,0,0,0-.24.52l1.65,3.48.59,3.83a.39.39,0,0,0,.47.29l2.06-.65a.68.68,0,0,0,.29-.29l.3-2.24,4.71-1-.41,7A.41.41,0,0,0,50,72l2.82-.94a.72.72,0,0,0,.3-.3l1.29-7.36L59,62a2.56,2.56,0,0,0,1.48-3.71A2.6,2.6,0,0,0,57.31,57Z"/><rect class="cls-2" width="88" height="88"/></g></g></svg>