<svg id="Capa_1" data-name="Capa 1" xmlns="http://www.w3.org/2000/svg" viewBox="0 0 120 120"><defs><style>.cls-1{fill:#7a7a7a;}</style></defs><path class="cls-1" d="M112.22,100.76V29.13A17.67,17.67,0,0,0,94.57,11.48H86.84V6.83a5.25,5.25,0,1,0-10.5,0v4.65H43.66V6.83a5.25,5.25,0,1,0-10.5,0v4.65H25.43A17.67,17.67,0,0,0,7.78,29.13v71.63a17.67,17.67,0,0,0,17.65,17.66H94.57A17.67,17.67,0,0,0,112.22,100.76Zm-10.5,0a7.16,7.16,0,0,1-7.15,7.16H25.44a7.16,7.16,0,0,1-7.15-7.16V53.43h83.43Zm0-57.83H18.29V29.13A7.15,7.15,0,0,1,25.44,22H94.58a7.16,7.16,0,0,1,7.16,7.15v13.8Z"/></svg>