<svg xmlns="http://www.w3.org/2000/svg" viewBox="0 0 88 88"><defs><style>.cls-1{fill:#f67b00;}.cls-2{fill:none;}</style></defs><g id="Capa_2" data-name="Capa 2"><g id="Capa_3_copia_10" data-name="Capa 3 copia 10"><g id="Y2SgBN"><path class="cls-1" d="M29.84,39.43c0,.06,0,.15-.08.19a2.22,2.22,0,0,1-1.68.6l-1.18-.11c-.26,0-.32,0-.32.28,0,.55,0,1.11,0,1.67a1.26,1.26,0,0,0,.24.77c.84,1.09,1.65,2.21,2.53,3.27.63.74,1.36,1.39,2,2.09l.18.19c-.08,0-.14.09-.2.09h-.63c-.29,0-.31,0-.31.32v3.88a.57.57,0,0,0,0,.13c0,.27-.11.44-.41.4s-.36,0-.37.33v2.53c0,.28.1.37.38.37h2.3c.31,0,.4-.09.4-.42V50.36a2.17,2.17,0,0,0,0-.26.32.32,0,0,0-.32-.31l-.33,0c.1-.2.17-.38.26-.53a13.73,13.73,0,0,0,1.57-3.52,2.74,2.74,0,0,1,.15-.4,4.63,4.63,0,0,0,.42-2.43c0-.71-.1-1.42-.16-2.13,0-.07,0-.15,0-.22s.07-.26.23-.26a3,3,0,0,1,1.26.18,1.83,1.83,0,0,1,.42.26,1.59,1.59,0,0,0,1,.36c.36,0,.72-.05,1.08-.05a.39.39,0,0,0,.36-.23,20,20,0,0,0,1.54-3.4c.14-.45.29-.9.47-1.33a3.17,3.17,0,0,0,.19-1.64,1.55,1.55,0,0,1,0-.43.29.29,0,0,1,.17-.2,1.85,1.85,0,0,1,1.24.19,3.18,3.18,0,0,0,2.61.51,1.15,1.15,0,0,1-.13.17,2.23,2.23,0,0,1-1.91.6c-.35,0-.71-.09-1.07-.11s-.54.15-.45.55a15.75,15.75,0,0,0,1.25,3.65c.09.2.21.39.31.58l.14.15c0-.23,0-.37,0-.52,0-.34.08-.4.41-.36a3,3,0,0,0,.52,0h.39c.26,0,.31.08.32.33,0,.56,0,1.14,0,1.7a2,2,0,0,0,.46,1.46l1.53,1.89.53.66.18.18c.05-.09.11-.15.11-.21,0-.66,0-1.33,0-2l-.23-.07a1.55,1.55,0,0,1-1-1.38c0-.61,0-1.21,0-1.81,0-.34,0-.4.4-.4H48c.32,0,.34,0,.34-.33,0-1.32,0-2.65,0-4a.34.34,0,0,0-.21-.36,1.11,1.11,0,0,1-.65-1.12c0-.35,0-.7,0-1.05s.06-.37.39-.39c.14,0,.29,0,.43,0s.31-.12.34-.37a1.11,1.11,0,0,0,0-.26c0-.85,0-1.71,0-2.56,0-.56-.08-.63-.63-.57a2,2,0,0,1-1-.08l.17-.28,3.31-5a2.13,2.13,0,0,0,.16-.25.41.41,0,0,0,0-.51c-.28-.34-.25-.52.13-.72a.44.44,0,0,0,.26-.45c0-.79,0-1.57,0-2.36,0-.11,0-.23.09-.29a.3.3,0,0,1,.36.05.51.51,0,0,0,.51.14,1.45,1.45,0,0,1,.36,0,4.22,4.22,0,0,1,1.71.7,2.1,2.1,0,0,0,1.21.36c.45,0,.89,0,1.35,0a1.42,1.42,0,0,1-.44.4,3.15,3.15,0,0,1-2.22.51c-.71-.1-1.43-.16-2.15-.23-.29,0-.34,0-.35.32,0,.12,0,.25,0,.37a.63.63,0,0,0,.3.54c.33.22.34.4.07.69s-.17.22,0,.46c.48.77,1,1.55,1.45,2.3.62.94,1.27,1.87,1.91,2.8l.3.45-.38,0H54c-.23,0-.31.05-.31.28l0,3.38s0,.06,0,.13h.67c.33,0,.38.08.37.39a6.43,6.43,0,0,0,0,.76,2,2,0,0,1-.25,1.13A1.19,1.19,0,0,1,54,35c0,.07,0,.15,0,.22v4.1c0,.17.08.23.25.23h1.41c.27,0,.34.06.34.32,0,.68,0,1.36,0,2a1.89,1.89,0,0,1-.59,1.17.31.31,0,0,1-.24,0c-.34,0-.41,0-.41.39s0,.63,0,.95c0,2.22,0,4.44,0,6.66,0,.27,0,.53,0,.79s.08.3.3.31h4.76c.22,0,.25,0,.25-.25,0-.52,0-1,0-1.55,0-.22,0-.26-.27-.28s-.32,0-.32-.32c0-.63,0-1.25,0-1.88a2.25,2.25,0,0,0,0-.26c0-.25-.06-.29-.32-.29l-.48,0,.26-.41a3.58,3.58,0,0,1,.29-.39,14.25,14.25,0,0,0,1.89-3.07,7.25,7.25,0,0,0,.59-1.41,6.08,6.08,0,0,0,.14-1.7c0-.41,0-.83,0-1.24a.75.75,0,0,1,0-.26c.06-.25.21-.37.45-.32a4.4,4.4,0,0,1,1.7.58,1.9,1.9,0,0,0,1.24.31l.75,0a1.22,1.22,0,0,1-.19.22,2.46,2.46,0,0,1-1.9.53l-1.28-.13c-.28,0-.36,0-.38.3a3.75,3.75,0,0,0,.42,2.13c.26.52.53,1,.78,1.55a12.65,12.65,0,0,0,1.21,2l.7,1,.18.3-.32.06c-.32.06-.38.12-.38.45,0,.63,0,1.25,0,1.87v.37a.71.71,0,0,1-.16.07.32.32,0,0,0-.26.36c0,.69,0,1.38.06,2.07.15,1.49.34,3,.53,4.46s.43,3.21.68,4.81a68,68,0,0,0,1.4,7.07s0,0,0,.06c.07.3,0,.36-.28.37H65.54c-1.44,0-2.89,0-4.33,0h-4.4l-3.91,0H48.8c-.33,0-.42-.13-.42-.45s0-.44,0-.66c0-1.26.06-2.52,0-3.77a4.43,4.43,0,0,0-1.61-3.36,4.82,4.82,0,0,0-2.25-1,5.24,5.24,0,0,0-4,.71,3.89,3.89,0,0,0-1.79,2.6,13.81,13.81,0,0,0-.27,2.94c0,.82,0,1.64,0,2.46,0,.44-.07.55-.56.55H33.35c-1.73,0-3.46,0-5.19,0q-3.45,0-6.89,0h-.2a.22.22,0,0,1-.23-.26c0-.09,0-.19,0-.29.42-2.07.86-4.13,1.26-6.2a20.89,20.89,0,0,0,.28-2.38c.06-1,0-2,.08-3s.15-2.09.23-3.14c0-.19,0-.39.05-.58a1,1,0,0,0,0-.28h-.31c-.28,0-.37-.07-.4-.36a5.61,5.61,0,0,1-.06-.59c0-1,0-2.08,0-3.12a3,3,0,0,0,0-.42.28.28,0,0,0-.35-.26c-.11,0-.21.06-.32.06a.33.33,0,0,1-.25-.11c-.07-.09,0-.17.09-.24a26.49,26.49,0,0,0,2.57-2.62A9.51,9.51,0,0,0,25,43.69a1.3,1.3,0,0,1,.18-.23A2,2,0,0,0,25.78,42c0-.9,0-1.81,0-2.72,0-.54.08-.61.61-.56a2.76,2.76,0,0,1,1.38.48,2,2,0,0,0,1.34.34,5.77,5.77,0,0,0,.71-.1Zm8.53,1.64a2.45,2.45,0,0,1-2.1.66c-.29,0-.59-.07-.88-.09s-.33,0-.34.31a9.55,9.55,0,0,0,.42,3.56A26.9,26.9,0,0,0,37,49.07a.41.41,0,0,0,.44.26H38.6c.36,0,.41,0,.41-.42,0-1.82,0-3.63,0-5.45,0-.61,0-1.22,0-1.84,0-.38-.07-.46-.43-.5Z"/><path class="cls-1" d="M29.84,39.43v0h0v0Z"/></g><rect class="cls-2" width="88" height="88"/></g></g></svg>