<svg id="Capa_1" data-name="Capa 1" xmlns="http://www.w3.org/2000/svg" viewBox="0 0 120 120">
    <defs>
        <style>.cls-1{fill:#7a7a7a;}</style>
    </defs>
    <path class="cls-1" d="M5.8,96.61A3.31,3.31,0,0,1,2.5,93.3V74.87a3.3,3.3,0,0,1,3.3-3.3,11.75,11.75,0,1,0,0-23.5,3.31,3.31,0,0,1-3.3-2.91V26.7a3.3,3.3,0,0,1,3.3-3.3H114.2a3.29,3.29,0,0,1,3.3,3v18.4a3.3,3.3,0,0,1-3.3,3.3,11.75,11.75,0,0,0,0,23.5,3.32,3.32,0,0,1,3.3,3.24V93.3a3.31,3.31,0,0,1-3.3,3.31Zm105.09-6.37V78.13a18.36,18.36,0,0,1,0-36V30H9.11V42.11A18.47,18.47,0,0,1,23.58,56.78,18.38,18.38,0,0,1,9.11,78.13V90.24ZM70.42,80.29a9.45,9.45,0,0,1-6.65-2.74,9.37,9.37,0,0,1,.06-13.18A9.34,9.34,0,0,1,77,64.4a9.3,9.3,0,0,1-6.62,15.89Zm0-12a2.69,2.69,0,0,0-1.9.82l-.12.12a2.59,2.59,0,0,0-.71,1.86,2.55,2.55,0,0,0,.82,1.81,2.68,2.68,0,0,0,1.91.81,2.63,2.63,0,0,0,1.9-.8.34.34,0,0,1,.19-.09,2.62,2.62,0,0,0,.62-1.8,2.53,2.53,0,0,0-.8-1.9,2.59,2.59,0,0,0-1.88-.83V68ZM42.78,79.74a3.56,3.56,0,0,1-2.37-.91,3.32,3.32,0,0,1-1-2.35,3.26,3.26,0,0,1,1-2.34l33.33-32.6a3.32,3.32,0,1,1,4.68,4.7.3.3,0,0,1-.2.08h-.06a.26.26,0,0,1-.16-.09L45.09,78.82a3.37,3.37,0,0,1-2.31.92Zm6.74-19.93a9.36,9.36,0,1,1,9.39-9.38,9.21,9.21,0,0,1-2.74,6.23,9.44,9.44,0,0,1-6.29,2.72v.14a.3.3,0,0,1-.3.29Zm.06-12.58a2.83,2.83,0,0,0-1.91.76,2.65,2.65,0,0,0-.8,1.95,2.56,2.56,0,0,0,.8,1.9l.13.12a2.72,2.72,0,0,0,4.5-2,2.68,2.68,0,0,0-2.72-2.72Z"/>
</svg>