<svg xmlns="http://www.w3.org/2000/svg" viewBox="0 0 88 88"><defs><style>.cls-1{fill:#305592;}.cls-2{fill:none;}</style></defs><g id="Capa_2" data-name="Capa 2"><g id="Capa_3_copia_10" data-name="Capa 3 copia 10"><path class="cls-1" d="M44,72A28,28,0,1,1,63.88,24.2,28,28,0,0,1,44,72Zm0-53.1A25.1,25.1,0,1,0,69.21,44,25.18,25.18,0,0,0,44,18.9Z"/><path class="cls-1" d="M46.13,57.26V38.52l-8,1.7v1.49q3.38,0,3.38,4.36V57q0,3.36-3.82,3.36v1.65H50.34V60.4Q46.13,60.4,46.13,57.26ZM43.64,26c-2.1,0-3.16,1-3.16,3.14s1,3.36,2.94,3.36q3.21,0,3.21-3.36C46.63,27,45.63,26,43.64,26Z"/><rect class="cls-2" width="88" height="88"/></g></g></svg>