<?xml version="1.0" encoding="utf-8"?>
<!-- Generator: Adobe Illustrator 26.1.0, SVG Export Plug-In . SVG Version: 6.00 Build 0)  -->
<svg version="1.1" id="Capa_1" xmlns="http://www.w3.org/2000/svg" xmlns:xlink="http://www.w3.org/1999/xlink" x="0px" y="0px"
	 viewBox="0 0 278.5 56.5" style="enable-background:new 0 0 278.5 56.5;" xml:space="preserve">
<style type="text/css">
	.st0{fill:#FFFFFF;}
	.st1{fill:#D6801C;}
	.st2{fill-rule:evenodd;clip-rule:evenodd;fill:#FFFFFF;}
</style>
<g>
	<g>
		<path class="st0" d="M62.4,11.5l-17.9,0v6.8l17.4,0c3.1,0,5.7,2.6,5.7,5.7c0,3.1-2.6,5.7-5.7,5.7l-17.4,0l0,26.5h6.5V36.4h11.3
			c6.9,0,12.5-5.6,12.5-12.4C74.9,17.1,69.3,11.5,62.4,11.5"/>
		<path class="st1" d="M24.8,51c-8.4,0-15.3-6.8-15.3-15.3c0-2.6,0.7-5.1,1.8-7.3l-5.9,0.8c-0.7,2.1-1.1,4.3-1.1,6.6
			c0,11.4,9.2,20.6,20.6,20.6c7,0,13.2-3.5,16.9-8.8h-7.4C31.8,49.7,28.5,51,24.8,51"/>
		<polygon class="st0" points="77.6,56.1 77.6,23.3 110.5,56.1 103.6,56.1 84.2,36.7 84.2,56.1 		"/>
		<polygon class="st0" points="110.5,11.6 110.5,51 77.6,18.2 77.7,11.5 104,37.8 104,11.6 		"/>
		<polygon class="st2" points="8.2,18.2 37.9,18.2 37.9,11.6 0.1,0.1 		"/>
		<polygon class="st2" points="8.2,19.7 1.1,26.9 37.9,21.9 37.9,19.7 		"/>
		<g>
			<path class="st0" d="M135.6,15.8l-1.5,1.2c-0.8-1.1-1.8-1.9-3-2.5c-1.2-0.6-2.4-0.8-3.8-0.8c-1.5,0-2.9,0.4-4.2,1.1
				c-1.3,0.7-2.3,1.7-3,2.9c-0.7,1.2-1.1,2.6-1.1,4.1c0,2.3,0.8,4.3,2.4,5.8c1.6,1.6,3.6,2.3,6,2.3c2.7,0,4.9-1,6.7-3.1l1.5,1.1
				c-1,1.2-2.1,2.1-3.6,2.8c-1.4,0.7-3,1-4.8,1c-3.3,0-6-1.1-7.9-3.3c-1.6-1.9-2.4-4.1-2.4-6.8c0-2.8,1-5.1,2.9-7
				c2-1.9,4.4-2.9,7.4-2.9c1.8,0,3.4,0.4,4.8,1.1C133.5,13.6,134.7,14.6,135.6,15.8"/>
			<path class="st0" d="M145.8,16.9c2.2,0,4,0.8,5.4,2.4c1.3,1.4,1.9,3.1,1.9,5.1c0,2-0.7,3.7-2.1,5.2c-1.4,1.5-3.1,2.2-5.3,2.2
				c-2.2,0-3.9-0.7-5.3-2.2c-1.4-1.5-2.1-3.2-2.1-5.2c0-2,0.7-3.6,2-5.1C141.8,17.7,143.6,16.9,145.8,16.9 M145.8,18.7
				c-1.5,0-2.8,0.6-3.9,1.7c-1.1,1.1-1.6,2.5-1.6,4c0,1,0.2,2,0.7,2.8c0.5,0.9,1.2,1.6,2,2c0.8,0.5,1.8,0.7,2.8,0.7
				c1,0,1.9-0.2,2.8-0.7c0.8-0.5,1.5-1.2,2-2c0.5-0.9,0.7-1.8,0.7-2.8c0-1.6-0.5-2.9-1.6-4C148.6,19.2,147.3,18.7,145.8,18.7"/>
			<path class="st0" d="M163.1,16.9c2.2,0,4,0.8,5.4,2.4c1.3,1.4,1.9,3.1,1.9,5.1c0,2-0.7,3.7-2.1,5.2c-1.4,1.5-3.1,2.2-5.3,2.2
				c-2.2,0-3.9-0.7-5.3-2.2c-1.4-1.5-2.1-3.2-2.1-5.2c0-2,0.6-3.6,1.9-5.1C159.2,17.7,161,16.9,163.1,16.9 M163.1,18.7
				c-1.5,0-2.8,0.6-3.9,1.7c-1.1,1.1-1.6,2.5-1.6,4c0,1,0.2,2,0.7,2.8c0.5,0.9,1.2,1.6,2,2c0.8,0.5,1.8,0.7,2.8,0.7
				c1,0,1.9-0.2,2.8-0.7c0.8-0.5,1.5-1.2,2-2c0.5-0.9,0.7-1.8,0.7-2.8c0-1.6-0.5-2.9-1.6-4C165.9,19.2,164.6,18.7,163.1,18.7"/>
			<path class="st0" d="M173.9,17.2h1.8v2.6c0.7-1,1.5-1.7,2.5-2.2c0.9-0.5,2-0.7,3.1-0.7c2,0,3.7,0.7,5.1,2.2
				c1.4,1.4,2.1,3.2,2.1,5.2c0,2.1-0.7,3.8-2.1,5.3c-1.4,1.4-3.1,2.2-5.1,2.2c-1.1,0-2.1-0.2-3.1-0.7c-0.9-0.5-1.8-1.2-2.5-2.1v7.6
				h-1.8V17.2z M181.1,18.6c-1.6,0-2.9,0.5-4,1.6c-1.1,1.1-1.6,2.5-1.6,4.1c0,1.1,0.2,2,0.7,2.9c0.5,0.9,1.2,1.5,2,2
				c0.9,0.5,1.8,0.7,2.8,0.7c1,0,1.9-0.2,2.7-0.8c0.9-0.5,1.5-1.2,2-2.1c0.5-0.9,0.8-1.9,0.8-2.8c0-1-0.3-2-0.8-2.8
				c-0.5-0.9-1.2-1.6-2-2.1C183.1,18.9,182.1,18.6,181.1,18.6"/>
			<path class="st0" d="M203.8,26.7l1.5,0.8c-0.5,1-1.1,1.8-1.7,2.4c-0.7,0.6-1.4,1.1-2.2,1.4c-0.8,0.3-1.8,0.5-2.8,0.5
				c-2.3,0-4.1-0.8-5.4-2.3c-1.3-1.5-1.9-3.2-1.9-5.1c0-1.8,0.5-3.4,1.6-4.8c1.4-1.8,3.3-2.7,5.6-2.7c2.4,0,4.3,0.9,5.8,2.7
				c1,1.3,1.5,2.9,1.6,4.8h-12.7c0,1.6,0.6,3,1.6,4c1,1,2.3,1.6,3.7,1.6c0.7,0,1.4-0.1,2.1-0.4c0.7-0.2,1.3-0.6,1.7-1
				C202.7,28.2,203.3,27.6,203.8,26.7 M203.8,22.9c-0.2-1-0.6-1.7-1.1-2.3c-0.5-0.6-1.1-1-1.8-1.4c-0.8-0.4-1.6-0.5-2.4-0.5
				c-1.4,0-2.6,0.4-3.6,1.3c-0.7,0.6-1.3,1.6-1.6,2.9H203.8z"/>
			<path class="st0" d="M208.5,17.2h1.9v2.1c0.6-0.8,1.1-1.4,1.8-1.8c0.6-0.4,1.3-0.6,1.9-0.6c0.5,0,1,0.2,1.6,0.5l-0.9,1.5
				c-0.4-0.2-0.7-0.2-1-0.2c-0.6,0-1.2,0.3-1.7,0.7c-0.6,0.5-1,1.3-1.3,2.3c-0.2,0.8-0.3,2.4-0.3,4.9v4.8h-1.9V17.2z"/>
			<path class="st0" d="M231.2,17.2v14.1h-1.8v-2.4c-0.8,0.9-1.6,1.6-2.6,2.1c-0.9,0.5-2,0.7-3.1,0.7c-2,0-3.7-0.7-5.1-2.2
				c-1.4-1.4-2.1-3.2-2.1-5.3c0-2,0.7-3.8,2.1-5.2c1.4-1.4,3.1-2.2,5.1-2.2c1.2,0,2.2,0.2,3.1,0.7c0.9,0.5,1.8,1.2,2.5,2.2v-2.6
				H231.2z M224,18.6c-1,0-1.9,0.3-2.8,0.7c-0.9,0.5-1.5,1.2-2,2.1c-0.5,0.9-0.8,1.8-0.8,2.8c0,1,0.3,1.9,0.8,2.8
				c0.5,0.9,1.2,1.6,2.1,2.1c0.9,0.5,1.8,0.8,2.8,0.8c1,0,1.9-0.2,2.8-0.7c0.9-0.5,1.6-1.2,2.1-2c0.5-0.9,0.7-1.8,0.7-2.9
				c0-1.6-0.5-3-1.6-4.1C226.9,19.2,225.5,18.6,224,18.6"/>
			<polygon class="st0" points="236.9,12 238.7,12 238.7,17.2 241.6,17.2 241.6,18.8 238.7,18.8 238.7,31.3 236.9,31.3 236.9,18.8 
				234.4,18.8 234.4,17.2 236.9,17.2 			"/>
			<path class="st0" d="M244.9,11.4c0.4,0,0.8,0.1,1.1,0.4c0.3,0.3,0.4,0.7,0.4,1.1c0,0.4-0.1,0.8-0.4,1c-0.3,0.3-0.6,0.4-1.1,0.4
				c-0.4,0-0.8-0.1-1-0.4c-0.3-0.3-0.4-0.6-0.4-1c0-0.4,0.1-0.8,0.4-1.1C244.2,11.6,244.5,11.4,244.9,11.4 M244,17.2h1.8v14.1H244
				V17.2z"/>
			<polygon class="st0" points="248.3,17.2 250.2,17.2 254.9,27.5 259.6,17.2 261.5,17.2 255.1,31.3 254.8,31.3 			"/>
			<path class="st0" d="M278.4,17.2v14.1h-1.8v-2.4c-0.8,0.9-1.6,1.6-2.6,2.1c-0.9,0.5-2,0.7-3.1,0.7c-2,0-3.7-0.7-5.1-2.2
				c-1.4-1.4-2.1-3.2-2.1-5.3c0-2,0.7-3.8,2.1-5.2c1.4-1.4,3.1-2.2,5.1-2.2c1.2,0,2.2,0.2,3.1,0.7c0.9,0.5,1.8,1.2,2.5,2.2v-2.6
				H278.4z M271.1,18.6c-1,0-1.9,0.3-2.8,0.7c-0.9,0.5-1.5,1.2-2,2.1c-0.5,0.9-0.8,1.8-0.8,2.8c0,1,0.3,1.9,0.8,2.8
				c0.5,0.9,1.2,1.6,2,2.1c0.9,0.5,1.8,0.8,2.8,0.8c1,0,1.9-0.2,2.8-0.7c0.9-0.5,1.6-1.2,2.1-2c0.5-0.9,0.7-1.8,0.7-2.9
				c0-1.6-0.5-3-1.6-4.1C274,19.2,272.7,18.6,271.1,18.6"/>
			<path class="st0" d="M117.2,41h3c1.7,0,2.9,0.1,3.5,0.2c0.9,0.2,1.6,0.7,2.1,1.3c0.5,0.7,0.8,1.5,0.8,2.5c0,1-0.3,1.8-0.8,2.5
				c-0.5,0.7-1.3,1.1-2.2,1.3c-0.7,0.2-2,0.2-3.8,0.2h-1.1v7h-1.5V41z M118.7,42.5v5.1l2.5,0c1,0,1.8-0.1,2.3-0.3
				c0.5-0.2,0.9-0.5,1.1-0.9c0.3-0.4,0.4-0.9,0.4-1.4c0-0.5-0.1-1-0.4-1.4c-0.3-0.4-0.6-0.7-1.1-0.9c-0.4-0.2-1.2-0.3-2.2-0.3H118.7
				z"/>
			<path class="st0" d="M134.6,44.6c1.7,0,3.1,0.6,4.3,1.9c1,1.1,1.5,2.5,1.5,4c0,1.6-0.5,2.9-1.6,4.1c-1.1,1.2-2.5,1.7-4.2,1.7
				c-1.7,0-3.1-0.6-4.2-1.7c-1.1-1.2-1.6-2.5-1.6-4.1c0-1.5,0.5-2.9,1.5-4C131.4,45.2,132.9,44.6,134.6,44.6 M134.6,46
				c-1.2,0-2.2,0.4-3.1,1.3c-0.9,0.9-1.3,1.9-1.3,3.2c0,0.8,0.2,1.6,0.6,2.2c0.4,0.7,0.9,1.2,1.6,1.6c0.7,0.4,1.4,0.6,2.2,0.6
				c0.8,0,1.5-0.2,2.2-0.6c0.7-0.4,1.2-0.9,1.6-1.6c0.4-0.7,0.6-1.4,0.6-2.2c0-1.2-0.4-2.3-1.3-3.2C136.8,46.5,135.8,46,134.6,46"/>
			<rect x="142.8" y="40.6" class="st0" width="1.4" height="15.4"/>
			<path class="st0" d="M147.7,40.3c0.3,0,0.6,0.1,0.8,0.3c0.2,0.2,0.3,0.5,0.3,0.8c0,0.3-0.1,0.6-0.3,0.8c-0.2,0.2-0.5,0.3-0.8,0.3
				c-0.3,0-0.6-0.1-0.8-0.3c-0.2-0.2-0.3-0.5-0.3-0.8c0-0.3,0.1-0.6,0.3-0.8C147.1,40.4,147.4,40.3,147.7,40.3 M147,44.9h1.4V56H147
				V44.9z"/>
			<path class="st0" d="M162.2,47.2l-1.1,0.7c-1-1.3-2.3-1.9-4-1.9c-1.4,0-2.5,0.4-3.4,1.3c-0.9,0.9-1.3,1.9-1.3,3.2
				c0,0.8,0.2,1.6,0.6,2.3c0.4,0.7,1,1.3,1.7,1.7c0.7,0.4,1.5,0.6,2.4,0.6c1.6,0,3-0.7,4-2l1.1,0.8c-0.5,0.8-1.2,1.4-2.1,1.9
				c-0.9,0.4-1.9,0.7-3.1,0.7c-1.8,0-3.2-0.6-4.4-1.7c-1.2-1.1-1.7-2.5-1.7-4.1c0-1.1,0.3-2.1,0.8-3c0.5-0.9,1.3-1.6,2.2-2.2
				c0.9-0.5,2-0.8,3.2-0.8c0.7,0,1.4,0.1,2.1,0.3c0.7,0.2,1.3,0.5,1.7,0.9C161.5,46.2,161.9,46.7,162.2,47.2"/>
			<path class="st0" d="M166.2,39.7h2.2l-3,3.1h-1.4L166.2,39.7z M164.7,44.9h1.4V56h-1.4V44.9z"/>
			<path class="st0" d="M180.2,44.9V56h-1.4v-1.9c-0.6,0.7-1.3,1.3-2,1.6c-0.7,0.4-1.6,0.6-2.4,0.6c-1.6,0-2.9-0.6-4-1.7
				c-1.1-1.1-1.7-2.5-1.7-4.2c0-1.6,0.6-3,1.7-4.1c1.1-1.1,2.5-1.7,4.1-1.7c0.9,0,1.7,0.2,2.5,0.6c0.7,0.4,1.4,1,1.9,1.8v-2H180.2z
				 M174.5,46c-0.8,0-1.5,0.2-2.2,0.6c-0.7,0.4-1.2,0.9-1.6,1.6c-0.4,0.7-0.6,1.5-0.6,2.2c0,0.8,0.2,1.5,0.6,2.2
				c0.4,0.7,0.9,1.3,1.6,1.7c0.7,0.4,1.4,0.6,2.2,0.6c0.8,0,1.5-0.2,2.2-0.6c0.7-0.4,1.2-0.9,1.6-1.6c0.4-0.7,0.6-1.4,0.6-2.3
				c0-1.3-0.4-2.4-1.3-3.2C176.8,46.4,175.7,46,174.5,46"/>
			<polygon class="st0" points="189.5,56 189.5,41 189.8,41 199.8,52.5 199.8,41 201.3,41 201.3,56 200.9,56 191,44.6 191,56 			"/>
			<path class="st0" d="M215.8,44.9V56h-1.4v-1.9c-0.6,0.7-1.3,1.3-2,1.6c-0.7,0.4-1.6,0.6-2.4,0.6c-1.6,0-2.9-0.6-4-1.7
				c-1.1-1.1-1.7-2.5-1.7-4.2c0-1.6,0.6-3,1.7-4.1c1.1-1.1,2.5-1.7,4.1-1.7c0.9,0,1.7,0.2,2.5,0.6c0.7,0.4,1.4,1,1.9,1.8v-2H215.8z
				 M210.1,46c-0.8,0-1.5,0.2-2.2,0.6c-0.7,0.4-1.2,0.9-1.6,1.6c-0.4,0.7-0.6,1.5-0.6,2.2c0,0.8,0.2,1.5,0.6,2.2
				c0.4,0.7,0.9,1.3,1.6,1.7c0.7,0.4,1.4,0.6,2.2,0.6c0.8,0,1.5-0.2,2.2-0.6c0.7-0.4,1.2-0.9,1.6-1.6c0.4-0.7,0.6-1.4,0.6-2.3
				c0-1.3-0.4-2.4-1.3-3.2C212.3,46.4,211.3,46,210.1,46"/>
			<path class="st0" d="M229.8,47.2l-1.1,0.7c-1-1.3-2.3-1.9-4-1.9c-1.4,0-2.5,0.4-3.4,1.3c-0.9,0.9-1.3,1.9-1.3,3.2
				c0,0.8,0.2,1.6,0.6,2.3c0.4,0.7,1,1.3,1.7,1.7c0.7,0.4,1.5,0.6,2.4,0.6c1.6,0,3-0.7,4-2l1.1,0.8c-0.5,0.8-1.2,1.4-2.1,1.9
				c-0.9,0.4-1.9,0.7-3.1,0.7c-1.8,0-3.2-0.6-4.4-1.7c-1.2-1.1-1.7-2.5-1.7-4.1c0-1.1,0.3-2.1,0.8-3c0.5-0.9,1.3-1.6,2.2-2.2
				c0.9-0.5,2-0.8,3.2-0.8c0.7,0,1.4,0.1,2.1,0.3c0.7,0.2,1.3,0.5,1.7,0.9C229.1,46.2,229.5,46.7,229.8,47.2"/>
			<path class="st0" d="M233,40.3c0.3,0,0.6,0.1,0.8,0.3c0.2,0.2,0.3,0.5,0.3,0.8c0,0.3-0.1,0.6-0.3,0.8c-0.2,0.2-0.5,0.3-0.8,0.3
				c-0.3,0-0.6-0.1-0.8-0.3c-0.2-0.2-0.3-0.5-0.3-0.8c0-0.3,0.1-0.6,0.3-0.8C232.4,40.4,232.7,40.3,233,40.3 M232.3,44.9h1.4V56
				h-1.4V44.9z"/>
			<path class="st0" d="M242,44.6c1.7,0,3.1,0.6,4.3,1.9c1,1.1,1.5,2.5,1.5,4c0,1.6-0.5,2.9-1.6,4.1c-1.1,1.2-2.5,1.7-4.2,1.7
				c-1.7,0-3.1-0.6-4.2-1.7c-1.1-1.2-1.6-2.5-1.6-4.1c0-1.5,0.5-2.9,1.5-4C238.9,45.2,240.3,44.6,242,44.6 M242,46
				c-1.2,0-2.2,0.4-3.1,1.3c-0.9,0.9-1.3,1.9-1.3,3.2c0,0.8,0.2,1.6,0.6,2.2c0.4,0.7,0.9,1.2,1.6,1.6c0.7,0.4,1.4,0.6,2.2,0.6
				c0.8,0,1.5-0.2,2.2-0.6c0.7-0.4,1.2-0.9,1.6-1.6c0.4-0.7,0.6-1.4,0.6-2.2c0-1.2-0.4-2.3-1.3-3.2C244.2,46.5,243.2,46,242,46"/>
			<path class="st0" d="M250.4,44.9h1.4v2c0.6-0.8,1.2-1.3,1.9-1.7c0.7-0.4,1.4-0.6,2.3-0.6c0.8,0,1.6,0.2,2.2,0.6
				c0.6,0.4,1.1,1,1.4,1.7c0.3,0.7,0.5,1.8,0.5,3.3V56h-1.4v-5.3c0-1.3-0.1-2.1-0.2-2.6c-0.2-0.7-0.5-1.3-1-1.7
				c-0.5-0.4-1.1-0.6-1.8-0.6c-0.9,0-1.6,0.3-2.3,0.9c-0.7,0.6-1.1,1.3-1.4,2.1c-0.1,0.6-0.2,1.6-0.2,3V56h-1.4V44.9z"/>
			<path class="st0" d="M274.3,44.9V56h-1.4v-1.9c-0.6,0.7-1.3,1.3-2,1.6c-0.7,0.4-1.6,0.6-2.4,0.6c-1.6,0-2.9-0.6-4-1.7
				c-1.1-1.1-1.7-2.5-1.7-4.2c0-1.6,0.6-3,1.7-4.1c1.1-1.1,2.5-1.7,4.1-1.7c0.9,0,1.7,0.2,2.5,0.6c0.7,0.4,1.4,1,1.9,1.8v-2H274.3z
				 M268.6,46c-0.8,0-1.5,0.2-2.2,0.6c-0.7,0.4-1.2,0.9-1.6,1.6c-0.4,0.7-0.6,1.5-0.6,2.2c0,0.8,0.2,1.5,0.6,2.2
				c0.4,0.7,0.9,1.3,1.6,1.7c0.7,0.4,1.4,0.6,2.2,0.6c0.8,0,1.5-0.2,2.2-0.6c0.7-0.4,1.2-0.9,1.6-1.6c0.4-0.7,0.6-1.4,0.6-2.3
				c0-1.3-0.4-2.4-1.3-3.2C270.8,46.4,269.8,46,268.6,46"/>
		</g>
	</g>
	<rect x="277.3" y="40.6" class="st0" width="1.4" height="15.4"/>
</g>
</svg>
