<svg xmlns="http://www.w3.org/2000/svg" viewBox="0 0 191.33 72"><defs><style>.cls-1,.cls-3{fill:#fff;}.cls-2{fill:#ddaf2a;}.cls-3{opacity:0.35;}</style></defs><g id="Capa_2" data-name="Capa 2"><g id="Capa_3_copia_10" data-name="Capa 3 copia 10"><path class="cls-1" d="M48.73,31l-5.4-15.36h2.19L49.91,29H50l4.43-13.32h2.13L51.05,31Z"/><path class="cls-1" d="M57.57,17.88V15.64H59.4v2.24Zm1.83,2V31H57.57V19.88Z"/><path class="cls-1" d="M63.64,28.52a1.87,1.87,0,0,0,.68.66,2.84,2.84,0,0,0,1,.36,5.49,5.49,0,0,0,1.08.11,7.39,7.39,0,0,0,.91-.07,3.11,3.11,0,0,0,.87-.24,1.6,1.6,0,0,0,.65-.5A1.31,1.31,0,0,0,69,28a1.23,1.23,0,0,0-.54-1.08,4.5,4.5,0,0,0-1.34-.59c-.54-.15-1.12-.29-1.75-.41a9.05,9.05,0,0,1-1.76-.51,3.73,3.73,0,0,1-1.34-.94,2.42,2.42,0,0,1-.54-1.68,2.58,2.58,0,0,1,.38-1.44,3.1,3.1,0,0,1,1-1,4.46,4.46,0,0,1,1.34-.56,6.16,6.16,0,0,1,1.47-.18,8.75,8.75,0,0,1,1.75.16,3.88,3.88,0,0,1,1.4.56,2.84,2.84,0,0,1,1,1.08,3.92,3.92,0,0,1,.43,1.68H68.66a2,2,0,0,0-.28-.89,2,2,0,0,0-.61-.57,2.66,2.66,0,0,0-.8-.31,3.94,3.94,0,0,0-.9-.1,4.73,4.73,0,0,0-.83.07,3,3,0,0,0-.76.22,1.53,1.53,0,0,0-.56.43,1.12,1.12,0,0,0-.21.7,1,1,0,0,0,.33.79,2.53,2.53,0,0,0,.85.51,6.63,6.63,0,0,0,1.16.35l1.29.29a12.22,12.22,0,0,1,1.35.37,4.18,4.18,0,0,1,1.16.57A2.53,2.53,0,0,1,71,27.75a3.08,3.08,0,0,1-.42,1.68,3.34,3.34,0,0,1-1.1,1.08,4.67,4.67,0,0,1-1.53.57,9.65,9.65,0,0,1-1.68.16,7.8,7.8,0,0,1-1.77-.2A4.2,4.2,0,0,1,63,30.41a3.24,3.24,0,0,1-1-1.16,4.18,4.18,0,0,1-.43-1.76h1.83A2.15,2.15,0,0,0,63.64,28.52Z"/><path class="cls-1" d="M73.11,17.88V15.64h1.83v2.24Zm1.83,2V31H73.11V19.88Z"/><path class="cls-1" d="M82.53,19.88v1.61H80.32V28.4a2.24,2.24,0,0,0,.05.51.62.62,0,0,0,.21.31,1,1,0,0,0,.42.14,6.34,6.34,0,0,0,.69,0h.84V31h-1.4a6.09,6.09,0,0,1-1.21-.1,1.76,1.76,0,0,1-.82-.35,1.51,1.51,0,0,1-.46-.73,4.26,4.26,0,0,1-.15-1.25V21.49h-1.9V19.88h1.9V16.54h1.83v3.34Z"/><path class="cls-1" d="M92.43,30.29a5.05,5.05,0,0,1-3.14.95A5.81,5.81,0,0,1,87,30.81a4.56,4.56,0,0,1-1.65-1.21,5.08,5.08,0,0,1-1-1.85A9,9,0,0,1,84,25.41a6.7,6.7,0,0,1,.39-2.33,5.6,5.6,0,0,1,1.09-1.83,4.94,4.94,0,0,1,3.75-1.63,4.59,4.59,0,0,1,2.47.61,5,5,0,0,1,1.57,1.56A6.21,6.21,0,0,1,94,23.86,8.32,8.32,0,0,1,94.22,26H85.89a4.53,4.53,0,0,0,.17,1.39,3.2,3.2,0,0,0,.63,1.16,3,3,0,0,0,1.09.8,3.67,3.67,0,0,0,1.57.31,3.17,3.17,0,0,0,1.91-.54,2.65,2.65,0,0,0,1-1.64h1.81A4.48,4.48,0,0,1,92.43,30.29ZM92,23.15a3,3,0,0,0-.67-1,3.26,3.26,0,0,0-1-.67,3.22,3.22,0,0,0-1.26-.25,3.28,3.28,0,0,0-1.28.25,2.93,2.93,0,0,0-1,.68,3.2,3.2,0,0,0-.65,1,3.75,3.75,0,0,0-.28,1.21h6.39A3.63,3.63,0,0,0,92,23.15Z"/><path class="cls-2" d="M83.92,34.79V39H72.05v4.81H82.94V47.6H72.05v5.51H84.17v4.16H67.11V34.79Z"/><path class="cls-2" d="M94.81,43.92a3.15,3.15,0,0,0-1.8.49,3.86,3.86,0,0,0-1.18,1.26,5.35,5.35,0,0,0-.64,1.7A8.91,8.91,0,0,0,91,49.21,8.52,8.52,0,0,0,91.19,51a5.57,5.57,0,0,0,.61,1.66A3.69,3.69,0,0,0,93,53.87a3.19,3.19,0,0,0,1.76.47,3.29,3.29,0,0,0,2.48-.9A4.31,4.31,0,0,0,98.27,51h4.31A7.39,7.39,0,0,1,100.07,56a8.16,8.16,0,0,1-5.32,1.7,8.93,8.93,0,0,1-3.36-.62,7.51,7.51,0,0,1-2.59-1.71,7.78,7.78,0,0,1-1.67-2.63,9.11,9.11,0,0,1-.6-3.35,10.76,10.76,0,0,1,.55-3.51,7.93,7.93,0,0,1,1.62-2.8,7.65,7.65,0,0,1,2.61-1.85,8.92,8.92,0,0,1,3.53-.66,10.32,10.32,0,0,1,2.79.38A7.56,7.56,0,0,1,100,42.08a6,6,0,0,1,2.47,4.64H98.11A3,3,0,0,0,94.81,43.92Z"/><path class="cls-2" d="M116.12,57.27V55H116a5,5,0,0,1-2.2,2,6.51,6.51,0,0,1-2.77.63,7.65,7.65,0,0,1-2.94-.48,4.22,4.22,0,0,1-1.81-1.33,5.29,5.29,0,0,1-.93-2.11A13,13,0,0,1,105.1,51V41h4.47v9.19a5.7,5.7,0,0,0,.63,3,2.43,2.43,0,0,0,2.23,1,3.12,3.12,0,0,0,2.65-1.08,6.11,6.11,0,0,0,.82-3.58V41h4.47V57.27Z"/><path class="cls-2" d="M123.58,46a5.16,5.16,0,0,1,.78-2.61,5.33,5.33,0,0,1,1.77-1.67,7.66,7.66,0,0,1,2.4-.9,13.66,13.66,0,0,1,2.7-.27,17.56,17.56,0,0,1,2.48.18,7.6,7.6,0,0,1,2.3.67,4.66,4.66,0,0,1,1.7,1.4,3.93,3.93,0,0,1,.66,2.38v8.47a16,16,0,0,0,.13,2.11,3.77,3.77,0,0,0,.44,1.51H134.4a6.69,6.69,0,0,1-.2-.77,7.17,7.17,0,0,1-.11-.81,5.81,5.81,0,0,1-2.52,1.55,10.2,10.2,0,0,1-3,.44,8,8,0,0,1-2.17-.29,4.94,4.94,0,0,1-1.76-.88A4,4,0,0,1,123.5,55a5.15,5.15,0,0,1-.43-2.17,4.78,4.78,0,0,1,.49-2.28,4.21,4.21,0,0,1,1.26-1.44,5.78,5.78,0,0,1,1.76-.8,17.34,17.34,0,0,1,2-.42c.67-.11,1.33-.19,2-.25a12.6,12.6,0,0,0,1.74-.29,2.93,2.93,0,0,0,1.19-.55,1.19,1.19,0,0,0,.41-1,2.44,2.44,0,0,0-.23-1.15,1.67,1.67,0,0,0-.63-.66,2.45,2.45,0,0,0-.92-.32,7.72,7.72,0,0,0-1.11-.08,3.36,3.36,0,0,0-2.08.57,2.5,2.5,0,0,0-.88,1.89Zm10.32,3.3a2,2,0,0,1-.71.4,7.1,7.1,0,0,1-.91.23c-.33.07-.67.12-1,.16s-.72.09-1.07.16a6.52,6.52,0,0,0-1,.25,3.21,3.21,0,0,0-.85.42,2,2,0,0,0-.59.68,2.26,2.26,0,0,0-.22,1,2.22,2.22,0,0,0,.22,1,1.68,1.68,0,0,0,.6.64,2.44,2.44,0,0,0,.88.33,5.1,5.1,0,0,0,1,.1,4,4,0,0,0,2.05-.44,3,3,0,0,0,1.07-1.06,3.32,3.32,0,0,0,.42-1.24,9.25,9.25,0,0,0,.08-1Z"/><path class="cls-2" d="M153.38,55.19a4.54,4.54,0,0,1-2.06,1.9,6.83,6.83,0,0,1-2.88.59,7,7,0,0,1-3.21-.71A6.44,6.44,0,0,1,143,55.05a8.62,8.62,0,0,1-1.35-2.79,11.48,11.48,0,0,1-.46-3.27,10.74,10.74,0,0,1,.46-3.16,8.15,8.15,0,0,1,1.35-2.7,6.83,6.83,0,0,1,2.25-1.87,6.71,6.71,0,0,1,3.15-.71,6.39,6.39,0,0,1,2.75.62A4.77,4.77,0,0,1,153.16,43h.07V34.79h4.47V57.27h-4.25V55.19Zm-.18-8a4.9,4.9,0,0,0-.65-1.64,3.7,3.7,0,0,0-1.18-1.15,3.49,3.49,0,0,0-1.83-.44,3.64,3.64,0,0,0-1.85.44,3.39,3.39,0,0,0-1.21,1.17,5.07,5.07,0,0,0-.67,1.65,9.36,9.36,0,0,0-.2,1.93,8.13,8.13,0,0,0,.22,1.89,5.22,5.22,0,0,0,.71,1.69,3.78,3.78,0,0,0,1.23,1.19,3.24,3.24,0,0,0,1.77.46,3.62,3.62,0,0,0,1.85-.44,3.42,3.42,0,0,0,1.18-1.18A5.49,5.49,0,0,0,153.2,51a10.25,10.25,0,0,0,.18-2A10.11,10.11,0,0,0,153.2,47.15Z"/><path class="cls-2" d="M161.16,45.61a7.44,7.44,0,0,1,4.34-4.44,9.27,9.27,0,0,1,3.46-.62,9.42,9.42,0,0,1,3.48.62,7.4,7.4,0,0,1,4.36,4.44,9.92,9.92,0,0,1,.6,3.54,9.81,9.81,0,0,1-.6,3.52,7.53,7.53,0,0,1-1.7,2.69,7.32,7.32,0,0,1-2.66,1.72,9.63,9.63,0,0,1-3.48.6,9.48,9.48,0,0,1-3.46-.6,7.33,7.33,0,0,1-2.64-1.72,7.53,7.53,0,0,1-1.7-2.69,9.81,9.81,0,0,1-.6-3.52A9.92,9.92,0,0,1,161.16,45.61Zm4.06,5.44a5.23,5.23,0,0,0,.64,1.67,3.45,3.45,0,0,0,1.22,1.18,3.71,3.71,0,0,0,1.88.44,3.85,3.85,0,0,0,1.91-.44,3.48,3.48,0,0,0,1.23-1.18,5,5,0,0,0,.64-1.67,9.21,9.21,0,0,0,.19-1.9,9.47,9.47,0,0,0-.19-1.92,4.84,4.84,0,0,0-.64-1.67A3.51,3.51,0,0,0,169,43.92a3.52,3.52,0,0,0-1.88.46,3.63,3.63,0,0,0-1.22,1.18,5.05,5.05,0,0,0-.64,1.67,9.47,9.47,0,0,0-.19,1.92A9.21,9.21,0,0,0,165.22,51.05Z"/><path class="cls-2" d="M184.55,41v3h.06a5.52,5.52,0,0,1,.85-1.41,5.39,5.39,0,0,1,1.23-1.1,5.83,5.83,0,0,1,1.47-.7,5.36,5.36,0,0,1,1.64-.26,3.7,3.7,0,0,1,1,.16v4.16a6,6,0,0,0-.76-.11,6.24,6.24,0,0,0-.85,0,4.68,4.68,0,0,0-2.08.41,3.55,3.55,0,0,0-1.36,1.11,4.4,4.4,0,0,0-.74,1.66,8.8,8.8,0,0,0-.22,2v7.34H180.3V41Z"/><rect class="cls-1" x="64.82" y="63.54" width="55.33" height="2.44"/><rect class="cls-2" x="120.14" y="63.54" width="71.18" height="2.44"/><g id="qW74IM"><path class="cls-2" d="M44,72a23.75,23.75,0,0,1-5.77-3,20.46,20.46,0,0,1-8.56-16.53c-.07-2.6,0-5.2,0-7.81a2.15,2.15,0,0,1,1.7-2.34c4.06-1.36,8.12-2.73,12.19-4a3.27,3.27,0,0,1,1.91,0c4.07,1.31,8.12,2.68,12.18,4a2.13,2.13,0,0,1,1.69,2.35q0,3.69,0,7.38a20.67,20.67,0,0,1-14,19.78A3,3,0,0,0,45,72Z"/><path class="cls-1" d="M24.05,0a11,11,0,0,1,1.7.8,3.87,3.87,0,0,1,1.77,3.26c.05,2.32,0,4.64,0,7a1.17,1.17,0,0,1-.06.24H23.36v-7H14.88v7H10.64v-6c0-3.09.63-4,3.43-5.22Z"/><path class="cls-1" d="M29.68,38.43V31c0-1.5,0-3,0-4.5a2.11,2.11,0,1,0-4.22,0c0,8.72,0,17.44,0,26.15a23.61,23.61,0,0,0,1.75,8.77c.07.17.13.35.19.52s0,.09,0,.21H9.06c0,.69,0,1.32,0,2a2.12,2.12,0,1,1-4.22,0c0-.61,0-1.22,0-1.83a.87.87,0,0,0-.4-.6A7,7,0,0,1,0,54.86q0-16,0-32a6.92,6.92,0,0,1,7.18-7.33q11.88-.06,23.77,0A6.89,6.89,0,0,1,38,21.23a7.84,7.84,0,0,1,.12,1.61c0,4,0,8.06,0,12.09a.81.81,0,0,1-.66.94c-2.36.75-4.71,1.56-7.06,2.34C30.23,38.29,30,38.34,29.68,38.43Zm-17,.57V30.57c0-1.43,0-2.86,0-4.29a2.09,2.09,0,0,0-4.11-.39,3.35,3.35,0,0,0-.09.83q0,12.27,0,24.54a3.53,3.53,0,0,0,.12,1,2.09,2.09,0,0,0,4-.15,5.37,5.37,0,0,0,0-1ZM17,39q0,5.66,0,11.32a14.42,14.42,0,0,0,0,1.47A2.07,2.07,0,0,0,20,53.5a2.22,2.22,0,0,0,1.25-2.25q0-12.27,0-24.53a3.31,3.31,0,0,0-.06-.7,2.07,2.07,0,0,0-2.37-1.7A2.1,2.1,0,0,0,17,26.57C17,30.71,17,34.86,17,39Z"/><path class="cls-3" d="M37.42,54.12s1.76.48,4.41,4.14c0,0,.88-4.95,9.52-11.13,0,0-5.47,3.73-8.73,14.46C41.05,66.76,40.68,56.56,37.42,54.12Z"/><path class="cls-1" d="M51.52,50.25l-.25.34.19-.18c.26.1,0,.3-.06.37C51.77,50.64,51.48,50.42,51.52,50.25Z"/><path class="cls-1" d="M51,50.58c-.2,0-.1.19,0,.23S51.07,50.62,51,50.58Z"/><path class="cls-1" d="M41.84,57.74c.06,0,.1-.1.15-.07S41.92,57.57,41.84,57.74Z"/><polygon class="cls-1" points="41.99 57.67 42.01 57.71 42.01 57.68 41.99 57.67"/><path class="cls-1" d="M45.65,55.41c0-.23.12-.26.18-.43l.23.07c.07-.18-.09-.18-.09-.36.23,0,.38-.37.45-.42s0,.15.08.22c.1-.21-.07-.36.12-.55l.05,0a5.31,5.31,0,0,1,1.66-1.6c-.06,0-.07,0-.11-.07.68-.49,1.63-.74,2.15-1.47-.44.15-1.34.13-1.66.65-.24-.1-.38.25-.55.08-.66.26-.74.68-1.25,1.07-.1,0-.13-.1-.21-.17a3.37,3.37,0,0,1,.37-.39,1.83,1.83,0,0,0-.33.11c0-.19.4-.28.33-.48-.3.41-1,.78-1.14,1.22a3.49,3.49,0,0,0,.53-.38c.13,0,.28,0,.34,0-.31.63-.82.79-1.17,1.34-.09.13-.25.27-.35.22s-.09-.1-.06-.2c-.09.22.28.27,0,.47L45,54.15c.23.35-.3.29-.25.61-.18,0-.16-.19-.06-.35-.17.13,0,.27-.1.4l-.18-.31c.15.32-.24.22-.39.25.06,0,.32.11.18.28S44,55,44,55a.29.29,0,0,1,.08.32c-.11,0-.1-.17-.19-.23-.05.1-.07.19-.19.22,0,.21.14.06.19.23-.22.22-.35-.16-.61-.17a4.14,4.14,0,0,1,.09-.74l-.16.45c-.1-.09-.35.17-.34-.11a2.61,2.61,0,0,0-.56,1.39c.07,0,.13-.1.2-.06,0,.24-.16.15-.27.16,0,.19.23.26.35.41-.32.25-.21.34-.56.53l.21.05c-.23.14.08.27-.12.44,0,0-.07-.09-.1-.18,0,.21-.24.13-.22.34l-.19-.22c-.05.15,0,.39-.21.26.18.33,0,.77,0,1.13l-.19-.06c.11.11.05.27,0,.43h0a5.4,5.4,0,0,0-1.8-1.93c-.14-.13-.54-.09-.78-.15.16.23.27.15.47.33s0,.43-.07.65l.11-.2c.31.08,0,.21.33.23l-.29.2c.19,0,.18.18.15.29l.23-.08c0,.21,0,.32-.17.47l.18-.12c-.09.12.34.53-.09.54.06,0,.19,0,.21.11l-.19.11c.12.11.24.24.14.33a.38.38,0,0,0-.28,0c.24.58.71-.19,1,.34l-.13,0,.2.08-.1.22c.27,0,.34.19.41.43a1.66,1.66,0,0,0,.3.57,1,1,0,0,0,1.08.12c.33-.21.22-.21.28-.27a.84.84,0,0,0,.08-.33c.06-.3.34-.35.39-.69l-.23,0c.26-.18.56-1,1.1-1-.13-.22,0,0-.22,0-.15-.42.21-.37.38-.53-.05-.25-.12.15-.26,0,.26-.3-.2-.35.07-.73.13,0,0,.13.12.19-.12-.34.16-.86.3-1.29A9.35,9.35,0,0,1,45.35,56l-.07,0c.31-.09.31-.39.54-.56Z"/><path class="cls-1" d="M47.08,51.43l-.15-.13-.22.27C46.91,51.63,46.9,51.49,47.08,51.43Z"/><polygon class="cls-1" points="47.32 51.95 47.41 51.8 47.19 51.93 47.32 51.95"/><polygon class="cls-1" points="44.19 54.34 44.24 54.32 44.47 53.74 44.19 54.34"/><path class="cls-1" d="M41.66,57.66c-.07-.09,0-.18,0-.27v.3Z"/><path class="cls-1" d="M40.27,60.2c.32.16,0,.2.29.12C40.53,60.15,40.37,60.26,40.27,60.2Z"/><path class="cls-1" d="M40.66,60.83a.2.2,0,0,0-.06-.18C40.43,60.72,40.6,60.76,40.66,60.83Z"/><path class="cls-1" d="M47.39,54.65a1,1,0,0,1,.25,0,.38.38,0,0,1,.28.08.23.23,0,0,1,.08.18.25.25,0,0,1-.19.25h0c.08,0,.12.09.15.2a1.9,1.9,0,0,0,.07.27H47.9a.87.87,0,0,1-.06-.24c0-.13-.09-.19-.2-.19h-.12v.43h-.13Zm.13.44h.13c.13,0,.22-.07.22-.18s-.09-.19-.23-.19a.29.29,0,0,0-.12,0Z"/><path class="cls-1" d="M47,55a.77.77,0,0,0,1,.87.73.73,0,0,0,.47-.47.76.76,0,0,0-.87-1A.78.78,0,0,0,47,55Zm.15.31a.62.62,0,0,1,.75-.76.64.64,0,0,1,.46.44.63.63,0,0,1-.76.77A.62.62,0,0,1,47.11,55.28Z"/></g></g></g></svg>