<svg xmlns="http://www.w3.org/2000/svg" viewBox="0 0 278.15 56.26"><defs><style>.cls-1,.cls-3{fill:#fff;}.cls-2{fill:#d6801c;}.cls-3{fill-rule:evenodd;}</style></defs><g id="Capa_2" data-name="Capa 2"><g id="Capa_3_copia_10" data-name="Capa 3 copia 10"><path class="cls-1" d="M62.27,11.42H44.4v6.76H61.77a5.7,5.7,0,0,1,0,11.39H44.4V56H51V36.32H62.27a12.45,12.45,0,1,0,0-24.9"/><path class="cls-2" d="M24.66,50.83A15.29,15.29,0,0,1,11.22,28.25l-5.89.8A20.57,20.57,0,0,0,41.7,47.42H34.28a15.22,15.22,0,0,1-9.62,3.41"/><polygon class="cls-1" points="77.48 55.94 77.48 23.13 110.35 55.94 103.44 55.94 83.99 36.53 83.99 55.94 77.48 55.94"/><polygon class="cls-1" points="110.35 11.45 110.35 50.85 77.48 18.03 77.51 11.38 103.84 37.69 103.84 11.45 110.35 11.45"/><polygon class="cls-3" points="8.08 18.13 37.74 18.13 37.74 11.51 0 0 8.08 18.13"/><polygon class="cls-3" points="8.08 19.62 0.95 26.77 37.74 21.73 37.74 19.62 8.08 19.62"/><path class="cls-1" d="M135.4,15.69l-1.5,1.16a8.16,8.16,0,0,0-3-2.46,8.7,8.7,0,0,0-3.83-.83,8.43,8.43,0,0,0-4.22,1.09,7.7,7.7,0,0,0-3,3,8.11,8.11,0,0,0-1.07,4.14,7.79,7.79,0,0,0,2.39,5.82,8.28,8.28,0,0,0,6,2.33,8.5,8.5,0,0,0,6.7-3.13l1.5,1.13a9.59,9.59,0,0,1-3.55,2.81,11.17,11.17,0,0,1-4.76,1,9.91,9.91,0,0,1-7.89-3.33,10.07,10.07,0,0,1-2.42-6.79,9.46,9.46,0,0,1,2.93-7,10.14,10.14,0,0,1,7.35-2.85,10.83,10.83,0,0,1,4.82,1.05,9.38,9.38,0,0,1,3.52,3"/><path class="cls-1" d="M145.6,16.75a7,7,0,0,1,5.4,2.36,7.58,7.58,0,0,1-.11,10.25,7.45,7.45,0,0,1-10.59,0,7.53,7.53,0,0,1-.11-10.23,7,7,0,0,1,5.41-2.38m0,1.78a5.19,5.19,0,0,0-3.89,1.67,5.55,5.55,0,0,0-1.63,4,5.77,5.77,0,0,0,.74,2.85,5.3,5.3,0,0,0,2,2,5.69,5.69,0,0,0,5.54,0,5.23,5.23,0,0,0,2-2,5.78,5.78,0,0,0,.75-2.85,5.56,5.56,0,0,0-1.64-4,5.2,5.2,0,0,0-3.87-1.67"/><path class="cls-1" d="M163,16.75a7,7,0,0,1,5.4,2.36,7.57,7.57,0,0,1-.12,10.25,7.44,7.44,0,0,1-10.58,0,7.53,7.53,0,0,1-.11-10.23A7,7,0,0,1,163,16.75m0,1.78a5.22,5.22,0,0,0-3.89,1.67,5.58,5.58,0,0,0-1.62,4,5.77,5.77,0,0,0,.74,2.85,5.19,5.19,0,0,0,2,2,5.67,5.67,0,0,0,5.53,0,5.23,5.23,0,0,0,2-2,5.66,5.66,0,0,0,.74-2.85,5.55,5.55,0,0,0-1.63-4A5.2,5.2,0,0,0,163,18.53"/><path class="cls-1" d="M173.69,17.12h1.82v2.59A7.18,7.18,0,0,1,178,17.49a6.59,6.59,0,0,1,3.12-.74,6.92,6.92,0,0,1,5.13,2.17,7.1,7.1,0,0,1,2.14,5.2,7.27,7.27,0,0,1-2.12,5.28,7.11,7.11,0,0,1-8.19,1.47,7.57,7.57,0,0,1-2.55-2.09v7.58h-1.82ZM181,18.5a5.37,5.37,0,0,0-4,1.64,5.63,5.63,0,0,0-1.6,4.1,5.75,5.75,0,0,0,.72,2.88,5.29,5.29,0,0,0,2.05,2,5.77,5.77,0,0,0,2.82.74,5.26,5.26,0,0,0,2.75-.76A5.47,5.47,0,0,0,185.77,27a5.85,5.85,0,0,0,.76-2.85,5.73,5.73,0,0,0-.76-2.84A5.46,5.46,0,0,0,181,18.5"/><path class="cls-1" d="M203.63,26.53l1.53.81a8.24,8.24,0,0,1-1.74,2.38,6.78,6.78,0,0,1-2.22,1.38,7.61,7.61,0,0,1-2.78.47,6.73,6.73,0,0,1-5.4-2.26,7.66,7.66,0,0,1-1.94-5.11,7.51,7.51,0,0,1,1.64-4.78,6.75,6.75,0,0,1,5.59-2.67,7,7,0,0,1,5.76,2.74,7.59,7.59,0,0,1,1.55,4.82H192.94a5.77,5.77,0,0,0,1.57,4,5,5,0,0,0,3.75,1.57,6,6,0,0,0,2.09-.37,5.65,5.65,0,0,0,1.74-1,8.78,8.78,0,0,0,1.54-2m0-3.79a6.17,6.17,0,0,0-1.06-2.32,4.91,4.91,0,0,0-1.83-1.4,5.71,5.71,0,0,0-2.4-.53,5.13,5.13,0,0,0-3.57,1.34,6,6,0,0,0-1.65,2.91Z"/><path class="cls-1" d="M208.32,17.12h1.85v2.06a6.56,6.56,0,0,1,1.75-1.83,3.44,3.44,0,0,1,1.91-.6,3.29,3.29,0,0,1,1.61.48l-.94,1.53a2.67,2.67,0,0,0-1-.24,2.64,2.64,0,0,0-1.75.74,4.73,4.73,0,0,0-1.29,2.31,22.68,22.68,0,0,0-.33,4.87v4.77h-1.85Z"/><path class="cls-1" d="M231,17.12V31.21h-1.79V28.78a7.73,7.73,0,0,1-2.57,2.09,7.13,7.13,0,0,1-8.2-1.47,7.23,7.23,0,0,1-2.12-5.28,7.1,7.1,0,0,1,2.14-5.2,6.92,6.92,0,0,1,5.14-2.17,6.7,6.7,0,0,1,3.14.74,7.27,7.27,0,0,1,2.47,2.22V17.12Zm-7.26,1.38a5.5,5.5,0,0,0-4.83,2.84A5.74,5.74,0,0,0,219,27,5.47,5.47,0,0,0,221,29.14a5.32,5.32,0,0,0,2.76.76,5.74,5.74,0,0,0,2.82-.74,5.29,5.29,0,0,0,2-2,5.75,5.75,0,0,0,.72-2.88,5.64,5.64,0,0,0-1.61-4.1,5.34,5.34,0,0,0-4-1.64"/><polygon class="cls-1" points="236.68 11.88 238.5 11.88 238.5 17.12 241.37 17.12 241.37 18.68 238.5 18.68 238.5 31.21 236.68 31.21 236.68 18.68 234.21 18.68 234.21 17.12 236.68 17.12 236.68 11.88"/><path class="cls-1" d="M244.72,11.32a1.42,1.42,0,0,1,1.06.44,1.5,1.5,0,0,1-1.06,2.55,1.49,1.49,0,0,1-1-2.55,1.39,1.39,0,0,1,1-.44m-.9,5.8h1.81V31.21h-1.81Z"/><polygon class="cls-1" points="248.07 17.12 250 17.12 254.73 27.39 259.4 17.12 261.35 17.12 254.9 31.21 254.56 31.21 248.07 17.12"/><path class="cls-1" d="M278.15,17.12V31.21h-1.79V28.78a7.6,7.6,0,0,1-2.56,2.09,7.14,7.14,0,0,1-8.21-1.47,7.27,7.27,0,0,1-2.12-5.28,7.1,7.1,0,0,1,2.14-5.2,6.94,6.94,0,0,1,5.14-2.17,6.71,6.71,0,0,1,3.15.74,7.25,7.25,0,0,1,2.46,2.22V17.12ZM270.9,18.5a5.47,5.47,0,0,0-2.8.75,5.37,5.37,0,0,0-2,2.09,5.63,5.63,0,0,0-.76,2.84,5.85,5.85,0,0,0,.76,2.85,5.47,5.47,0,0,0,2.05,2.11,5.32,5.32,0,0,0,2.77.76,5.7,5.7,0,0,0,2.81-.74,5.38,5.38,0,0,0,2.06-2,5.75,5.75,0,0,0,.71-2.88,5.6,5.6,0,0,0-1.61-4.1,5.33,5.33,0,0,0-4-1.64"/><path class="cls-1" d="M117,40.86h3a18,18,0,0,1,3.47.22,3.86,3.86,0,0,1,2.1,1.31,3.75,3.75,0,0,1,.82,2.48,3.82,3.82,0,0,1-.79,2.48,4,4,0,0,1-2.2,1.31,19.78,19.78,0,0,1-3.82.24h-1.08v7H117Zm1.49,1.47v5.1l2.55,0a6.6,6.6,0,0,0,2.26-.28,2.24,2.24,0,0,0,1.12-.91,2.56,2.56,0,0,0,0-2.78,2.23,2.23,0,0,0-1.08-.89,6.32,6.32,0,0,0-2.19-.27Z"/><path class="cls-1" d="M134.41,44.49a5.49,5.49,0,0,1,4.26,1.86,5.8,5.8,0,0,1,1.54,4,5.74,5.74,0,0,1-1.63,4.07,5.84,5.84,0,0,1-8.34,0,5.93,5.93,0,0,1-.09-8.07,5.47,5.47,0,0,1,4.26-1.87m0,1.4a4.14,4.14,0,0,0-3.07,1.32,4.42,4.42,0,0,0-1.28,3.19,4.49,4.49,0,0,0,.59,2.24,4.08,4.08,0,0,0,1.58,1.61,4.45,4.45,0,0,0,4.36,0,4.08,4.08,0,0,0,1.58-1.61,4.48,4.48,0,0,0,.58-2.24,4.38,4.38,0,0,0-1.28-3.19,4.14,4.14,0,0,0-3.06-1.32"/><rect class="cls-1" x="142.64" y="40.49" width="1.43" height="15.4"/><path class="cls-1" d="M147.54,40.2a1.1,1.1,0,0,1,.83.35,1.15,1.15,0,0,1,.35.84,1.12,1.12,0,0,1-.35.82,1.14,1.14,0,0,1-.83.35,1.16,1.16,0,0,1-.83-.35,1.11,1.11,0,0,1-.34-.82,1.14,1.14,0,0,1,.34-.84,1.12,1.12,0,0,1,.83-.35m-.71,4.58h1.43V55.89h-1.43Z"/><path class="cls-1" d="M162,47.08l-1.14.71a4.73,4.73,0,0,0-4-1.95,4.65,4.65,0,0,0-3.38,1.3,4.28,4.28,0,0,0-1.34,3.18,4.39,4.39,0,0,0,.62,2.28,4.31,4.31,0,0,0,1.69,1.67,5,5,0,0,0,2.42.59,4.86,4.86,0,0,0,4-2l1.14.75a5.36,5.36,0,0,1-2.14,1.85,6.75,6.75,0,0,1-3.06.67,6,6,0,0,1-4.37-1.68,5.44,5.44,0,0,1-1.74-4.08,5.85,5.85,0,0,1,3-5.15,6.51,6.51,0,0,1,3.18-.78,6.6,6.6,0,0,1,2.13.34,6,6,0,0,1,1.74.87A5.09,5.09,0,0,1,162,47.08"/><path class="cls-1" d="M166,39.57h2.2l-3,3.14h-1.41Zm-1.42,5.21H166V55.89h-1.43Z"/><path class="cls-1" d="M180,44.78V55.89h-1.41V54a6.13,6.13,0,0,1-2,1.65,5.54,5.54,0,0,1-2.45.55,5.41,5.41,0,0,1-4-1.71,5.73,5.73,0,0,1-1.68-4.17,5.59,5.59,0,0,1,1.69-4.1,5.49,5.49,0,0,1,4.06-1.71,5.36,5.36,0,0,1,2.48.58,5.71,5.71,0,0,1,1.94,1.75v-2Zm-5.72,1.09a4.34,4.34,0,0,0-2.2.59,4.26,4.26,0,0,0-1.61,1.65,4.45,4.45,0,0,0-.6,2.24,4.52,4.52,0,0,0,.61,2.24,4.38,4.38,0,0,0,1.61,1.67,4.24,4.24,0,0,0,2.18.6,4.51,4.51,0,0,0,2.23-.59,4.09,4.09,0,0,0,1.61-1.61,4.51,4.51,0,0,0,.58-2.27,4.4,4.4,0,0,0-1.28-3.22,4.18,4.18,0,0,0-3.13-1.3"/><polygon class="cls-1" points="189.28 55.89 189.28 40.86 189.61 40.86 199.62 52.38 199.62 40.86 201.1 40.86 201.1 55.89 200.76 55.89 190.84 44.51 190.84 55.89 189.28 55.89"/><path class="cls-1" d="M215.59,44.78V55.89h-1.41V54a6.13,6.13,0,0,1-2,1.65,5.53,5.53,0,0,1-2.44.55,5.43,5.43,0,0,1-4-1.71A5.73,5.73,0,0,1,204,50.3a5.62,5.62,0,0,1,1.69-4.1,5.49,5.49,0,0,1,4.06-1.71,5.29,5.29,0,0,1,2.47.58,5.56,5.56,0,0,1,2,1.75v-2Zm-5.71,1.09a4.33,4.33,0,0,0-3.82,2.24,4.44,4.44,0,0,0-.59,2.24,4.51,4.51,0,0,0,.6,2.24,4.34,4.34,0,0,0,1.62,1.67,4.18,4.18,0,0,0,2.17.6,4.51,4.51,0,0,0,2.23-.59,4.18,4.18,0,0,0,1.62-1.61,4.6,4.6,0,0,0,.56-2.27A4.39,4.39,0,0,0,213,47.17a4.17,4.17,0,0,0-3.12-1.3"/><path class="cls-1" d="M229.6,47.08l-1.14.71a4.74,4.74,0,0,0-4-1.95,4.65,4.65,0,0,0-3.37,1.3,4.28,4.28,0,0,0-1.34,3.18,4.39,4.39,0,0,0,.62,2.28,4.31,4.31,0,0,0,1.69,1.67,5,5,0,0,0,2.42.59,4.87,4.87,0,0,0,4-2l1.14.75a5.43,5.43,0,0,1-2.14,1.85,6.75,6.75,0,0,1-3.06.67A6.05,6.05,0,0,1,220,54.5a5.47,5.47,0,0,1-1.73-4.08,5.81,5.81,0,0,1,.81-3,5.72,5.72,0,0,1,2.23-2.16,6.51,6.51,0,0,1,3.18-.78,6.6,6.6,0,0,1,2.13.34,5.9,5.9,0,0,1,1.74.87,4.93,4.93,0,0,1,1.22,1.38"/><path class="cls-1" d="M232.84,40.2a1.13,1.13,0,0,1,.84.35,1.14,1.14,0,0,1,.34.84,1.11,1.11,0,0,1-.34.82,1.17,1.17,0,0,1-1.67,0,1.15,1.15,0,0,1-.34-.82,1.18,1.18,0,0,1,.34-.84,1.12,1.12,0,0,1,.83-.35m-.71,4.58h1.44V55.89h-1.44Z"/><path class="cls-1" d="M241.79,44.49a5.53,5.53,0,0,1,4.27,1.86,6,6,0,0,1-.1,8.08,5.84,5.84,0,0,1-8.34,0,5.93,5.93,0,0,1-.09-8.07,5.48,5.48,0,0,1,4.26-1.87m0,1.4a4.1,4.1,0,0,0-3.06,1.32,4.38,4.38,0,0,0-1.28,3.19,4.48,4.48,0,0,0,.58,2.24,4.08,4.08,0,0,0,1.58,1.61,4.45,4.45,0,0,0,4.36,0,4.08,4.08,0,0,0,1.58-1.61,4.49,4.49,0,0,0,.59-2.24,4.39,4.39,0,0,0-1.29-3.19,4.14,4.14,0,0,0-3.06-1.32"/><path class="cls-1" d="M250.23,44.78h1.44v2a5.84,5.84,0,0,1,1.9-1.71,4.63,4.63,0,0,1,2.26-.57,4,4,0,0,1,2.22.63,3.89,3.89,0,0,1,1.42,1.71,9,9,0,0,1,.46,3.34v5.72H258.5v-5.3a12.62,12.62,0,0,0-.16-2.56,2.58,2.58,0,0,0-2.79-2.22,3.51,3.51,0,0,0-2.32.86,4,4,0,0,0-1.36,2.12,15.38,15.38,0,0,0-.2,3v4.07h-1.44Z"/><path class="cls-1" d="M274.07,44.78V55.89h-1.41V54a6.13,6.13,0,0,1-2,1.65,5.56,5.56,0,0,1-2.44.55,5.43,5.43,0,0,1-4-1.71,5.73,5.73,0,0,1-1.68-4.17,5.62,5.62,0,0,1,1.69-4.1,5.48,5.48,0,0,1,4.06-1.71,5.32,5.32,0,0,1,2.47.58,5.64,5.64,0,0,1,2,1.75v-2Zm-5.72,1.09a4.32,4.32,0,0,0-2.2.59,4.26,4.26,0,0,0-1.61,1.65,4.45,4.45,0,0,0,0,4.48,4.31,4.31,0,0,0,1.61,1.67,4.24,4.24,0,0,0,2.18.6,4.54,4.54,0,0,0,2.23-.59,4.18,4.18,0,0,0,1.62-1.61,4.6,4.6,0,0,0,.56-2.27,4.39,4.39,0,0,0-1.27-3.22,4.18,4.18,0,0,0-3.13-1.3"/></g></g></svg>