<svg xmlns="http://www.w3.org/2000/svg" viewBox="0 0 88 88"><defs><style>.cls-1{fill:#f67b00;}.cls-2{fill:none;}</style></defs><g id="Capa_2" data-name="Capa 2"><g id="Capa_3_copia_10" data-name="Capa 3 copia 10"><path class="cls-1" d="M38.48,58.13a13.08,13.08,0,0,1,2.56-3,.78.78,0,0,0,.23-.5c.08-.79.07-1.58.2-2.36a4,4,0,0,1,3.15-3.57l.37.61c.56.91,1.14,1.81,1.68,2.74a.93.93,0,0,0,1.06.48,12.28,12.28,0,0,1-.11-1.35,21.19,21.19,0,0,1,.12-2.4,1.29,1.29,0,0,1,1.16-1.16,14.56,14.56,0,0,0,5.15-2,4.65,4.65,0,0,0,2.23-2.93,8.16,8.16,0,0,0,0-1.31,7.53,7.53,0,0,0,.1-1.25c-.08-.8-.43-1-1.25-1a12.78,12.78,0,0,1-2.23,0,14.84,14.84,0,0,1-2.28-.75.35.35,0,0,1-.18-.2A1.62,1.62,0,0,0,48.89,37a2,2,0,0,1-1.28-.54,4.34,4.34,0,0,0-3-1,12,12,0,0,0-3.81.5,6.14,6.14,0,0,0-4.39,5.16c-.07.35-.09.72-.16,1.07a.56.56,0,0,0,.29.63A5.83,5.83,0,0,1,39,45.73a1.67,1.67,0,0,0,1.31,1.12,7.16,7.16,0,0,0,3.22.22,5.47,5.47,0,0,0,.58-.15c1.17-.39,1.47-.78,1.39-2a11.64,11.64,0,0,0-2.68-6.6L42.57,38l.08-.07a.82.82,0,0,1,.17.11A11.89,11.89,0,0,1,46,44.75a6.68,6.68,0,0,1,0,1,1.51,1.51,0,0,1-.6,1.14,4.59,4.59,0,0,1-2.48.94,8.09,8.09,0,0,1-3.55-.5,1.57,1.57,0,0,1-1-1.08,5.52,5.52,0,0,0-2.08-2.63c0,.24,0,.48,0,.71A9.67,9.67,0,0,1,33.57,52a48.67,48.67,0,0,0-6.24,9A28.72,28.72,0,0,0,35,67.34l.15-.72A26.21,26.21,0,0,1,38.48,58.13Zm9.64-17.92a.63.63,0,0,1,0,1.26.64.64,0,0,1-.64-.63h0A.64.64,0,0,1,48.12,40.21Z"/><path class="cls-1" d="M47.21,66.34a2.27,2.27,0,0,1,1.52-2.86,11.48,11.48,0,0,1,1.84-.55,1.31,1.31,0,0,1,.62.06c1,.16,1.38-.11,1.62-1a.63.63,0,0,1,.15-.32c.68-.56.65-1.44,1-2.17.06-.13-.08-.41-.2-.55a2.43,2.43,0,0,0-.63-.43A2.71,2.71,0,0,1,51.74,57c-.26-.66-.54-1.31-.79-2a1.52,1.52,0,0,0-1.22-1c-.85-.16-1.71-.3-2.58-.4A1.42,1.42,0,0,1,46,52.81c-.52-.88-1.07-1.73-1.61-2.6l-.19-.27a2.4,2.4,0,0,0-1.49,1.65,12.59,12.59,0,0,0-.4,2.73,2.14,2.14,0,0,1-.84,1.83,13.3,13.3,0,0,0-3.47,5,31.62,31.62,0,0,0-2.06,6.65,32.24,32.24,0,0,0,13,3.6c0-.13-.1-.27-.15-.39A21,21,0,0,1,47.21,66.34Zm1.63-10a.64.64,0,1,1-.63.63h0a.63.63,0,0,1,.63-.63Z"/><path class="cls-1" d="M67.75,48.43a1.41,1.41,0,0,1-1.08-.51L44,20.17,21.33,47.92a1.4,1.4,0,0,1-2.17-1.78L42.91,17.06a1.46,1.46,0,0,1,2.18,0L68.84,46.14a1.4,1.4,0,0,1-.2,2A1.37,1.37,0,0,1,67.75,48.43Z"/><rect class="cls-2" width="88" height="88"/></g></g></svg>