<svg xmlns="http://www.w3.org/2000/svg" xmlns:xlink="http://www.w3.org/1999/xlink" viewBox="0 0 420.28 59.03"><defs><style>.cls-1{fill:#95979a;}.cls-2{fill:#fff;}.cls-3{fill:#68b7e2;}.cls-4{fill:url(#linear-gradient);}.cls-5{fill:url(#linear-gradient-2);}.cls-6{fill:url(#linear-gradient-3);}</style><linearGradient id="linear-gradient" x1="46.13" y1="29.68" x2="10.39" y2="29.68" gradientUnits="userSpaceOnUse"><stop offset="0" stop-color="#f1ce30"/><stop offset="0.41" stop-color="#eaab28"/><stop offset="0.78" stop-color="#e69323"/><stop offset="1" stop-color="#e48a21"/></linearGradient><linearGradient id="linear-gradient-2" x1="36.85" y1="33.07" x2="3.24" y2="66.69" gradientUnits="userSpaceOnUse"><stop offset="0" stop-color="#dc4447"/><stop offset="1" stop-color="#b4166c"/></linearGradient><linearGradient id="linear-gradient-3" x1="3.09" y1="-7.47" x2="30.53" y2="19.97" gradientUnits="userSpaceOnUse"><stop offset="0" stop-color="#508d6f"/><stop offset="0.04" stop-color="#528f6f"/><stop offset="0.63" stop-color="#6aa66a"/><stop offset="1" stop-color="#73af68"/></linearGradient></defs><g id="Capa_2" data-name="Capa 2"><g id="Capa_3_copia_10" data-name="Capa 3 copia 10"><rect x="220.48" y="0.74" width="199.05" height="57.54" rx="8.34"/><path class="cls-1" d="M412.73,59H227.29a7.56,7.56,0,0,1-7.55-7.55V7.55A7.56,7.56,0,0,1,227.29,0H412.73a7.56,7.56,0,0,1,7.55,7.55V51.48A7.56,7.56,0,0,1,412.73,59ZM227.29,1.49a6.07,6.07,0,0,0-6.06,6.06V51.48a6.07,6.07,0,0,0,6.06,6.06H412.73a6.07,6.07,0,0,0,6.06-6.06V7.55a6.07,6.07,0,0,0-6.06-6.06Z"/><path class="cls-2" d="M286.5,16.79l-.83,2.74h-1.83L287,9.84h2.26l3.15,9.69h-1.9l-.88-2.74Zm2.78-1.34-.76-2.39c-.19-.59-.35-1.25-.49-1.81h0c-.15.56-.29,1.23-.46,1.81l-.75,2.39Z"/><path class="cls-2" d="M295,12.53l1.14,3.55c.2.62.34,1.18.47,1.76h.05c.13-.58.28-1.13.47-1.76l1.12-3.55h1.86l-2.68,7h-1.74l-2.6-7Z"/><path class="cls-2" d="M307.17,17.85a10.11,10.11,0,0,0,.11,1.68h-1.59l-.13-.77h-.05a2.56,2.56,0,0,1-2.07.93,2.08,2.08,0,0,1-2.2-2.08c0-1.76,1.57-2.67,4.16-2.65v-.12c0-.46-.19-1.22-1.42-1.22a3.77,3.77,0,0,0-1.89.52L301.75,13a5,5,0,0,1,2.53-.62c2.24,0,2.89,1.42,2.89,3Zm-1.73-1.74c-1.25,0-2.44.24-2.44,1.31a.92.92,0,0,0,1,1,1.46,1.46,0,0,0,1.4-1,1.29,1.29,0,0,0,0-.39Z"/><path class="cls-2" d="M310.55,11.52a1,1,0,1,1,1-.95.94.94,0,0,1-1,.95Zm-.88,8v-7h1.77v7Z"/><path class="cls-2" d="M314,9.31h1.77V19.53H314Z"/><path class="cls-2" d="M323.75,17.85a10.11,10.11,0,0,0,.11,1.68h-1.59l-.13-.77h0a2.59,2.59,0,0,1-2.08.93,2.08,2.08,0,0,1-2.2-2.08c0-1.76,1.57-2.67,4.16-2.65v-.12c0-.46-.19-1.22-1.42-1.22a3.77,3.77,0,0,0-1.89.52L318.33,13a5,5,0,0,1,2.53-.62c2.24,0,2.89,1.42,2.89,3ZM322,16.11c-1.25,0-2.44.24-2.44,1.31a.92.92,0,0,0,1,1,1.45,1.45,0,0,0,1.39-1,1.29,1.29,0,0,0,0-.39Z"/><path class="cls-2" d="M326.25,9.31H328v4.18h0a2.54,2.54,0,0,1,2.24-1.12c1.72,0,2.94,1.42,2.92,3.55,0,2.52-1.59,3.77-3.18,3.77a2.39,2.39,0,0,1-2.21-1.21h0l-.09,1.05h-1.51c0-.47.06-1.25.06-2ZM328,16.64a1.87,1.87,0,0,0,0,.42,1.63,1.63,0,0,0,1.57,1.24c1.11,0,1.78-.88,1.78-2.31,0-1.23-.58-2.24-1.76-2.24A1.64,1.64,0,0,0,328.08,15a2.07,2.07,0,0,0-.06.47Z"/><path class="cls-2" d="M335.3,9.31h1.77V19.53H335.3Z"/><path class="cls-2" d="M340.88,16.53A1.9,1.9,0,0,0,343,18.34a5.63,5.63,0,0,0,2-.32l.25,1.21a6.21,6.21,0,0,1-2.44.45,3.32,3.32,0,0,1-3.61-3.54,3.47,3.47,0,0,1,3.42-3.77c2.27,0,3,1.87,3,3.41a5.86,5.86,0,0,1-.05.75ZM344,15.29a1.5,1.5,0,0,0-1.45-1.71,1.72,1.72,0,0,0-1.62,1.71Z"/><path class="cls-2" d="M354.35,19.69a3.39,3.39,0,0,1-3.51-3.61,3.46,3.46,0,0,1,3.63-3.71A3.37,3.37,0,0,1,358,16a3.46,3.46,0,0,1-3.58,3.72Zm.06-1.28c1,0,1.71-1,1.71-2.4,0-1.09-.49-2.36-1.7-2.36s-1.75,1.22-1.75,2.39c0,1.35.67,2.37,1.72,2.37Z"/><path class="cls-2" d="M360,14.61c0-.8,0-1.48-.06-2.08h1.54l.09,1.05h0a2.58,2.58,0,0,1,2.25-1.21c1.22,0,2.48.79,2.48,3v4.15h-1.76v-4c0-1-.38-1.77-1.34-1.77a1.47,1.47,0,0,0-1.38,1,1.6,1.6,0,0,0-.09.56v4.13H360Z"/><path class="cls-2" d="M374.53,10.73v1.8h1.68v1.32h-1.68v3.08c0,.86.23,1.29.9,1.29a2.21,2.21,0,0,0,.69-.07l0,1.34a3.87,3.87,0,0,1-1.28.19,2,2,0,0,1-1.52-.58,2.75,2.75,0,0,1-.56-2V13.85h-1V12.53h1V11.22Z"/><path class="cls-2" d="M378.18,9.31H380v4.17h0a2.24,2.24,0,0,1,.88-.79,2.39,2.39,0,0,1,1.22-.32c1.19,0,2.44.79,2.44,3v4.13h-1.77V15.59c0-1-.37-1.78-1.35-1.78a1.47,1.47,0,0,0-1.38,1,1.55,1.55,0,0,0-.07.53v4.2h-1.77Z"/><path class="cls-2" d="M388.29,16.53a1.9,1.9,0,0,0,2.16,1.81,5.57,5.57,0,0,0,1.94-.32l.26,1.21a6.3,6.3,0,0,1-2.45.45,3.32,3.32,0,0,1-3.61-3.54A3.47,3.47,0,0,1,390,12.37c2.27,0,3,1.87,3,3.41a4.23,4.23,0,0,1-.06.75Zm3.08-1.24a1.51,1.51,0,0,0-1.46-1.71,1.72,1.72,0,0,0-1.62,1.71Z"/><path class="cls-2" d="M264.49,28.94a8.62,8.62,0,0,1,4.11-7.24,8.81,8.81,0,0,0-7-3.77c-2.93-.31-5.77,1.76-7.26,1.76S250.56,18,248.09,18a9.27,9.27,0,0,0-7.8,4.76c-3.38,5.84-.86,14.42,2.37,19.15,1.62,2.31,3.51,4.89,6,4.8s3.32-1.54,6.24-1.54,3.74,1.54,6.27,1.48,4.23-2.32,5.79-4.66a19,19,0,0,0,2.65-5.39,8.33,8.33,0,0,1-5.1-7.67"/><path class="cls-2" d="M259.73,14.83a8.5,8.5,0,0,0,1.94-6.09,8.62,8.62,0,0,0-5.59,2.89,8.07,8.07,0,0,0-2,5.86,7.14,7.14,0,0,0,5.65-2.66"/><path class="cls-2" d="M299.46,46.34h-3.37l-1.85-5.81h-6.41l-1.76,5.81h-3.29l6.37-19.76h3.92Zm-5.77-8.24L292,32.94c-.18-.53-.51-1.77-1-3.72H291c-.19.84-.51,2.08-.94,3.72l-1.64,5.16Z"/><path class="cls-2" d="M315.82,39a8.08,8.08,0,0,1-2,5.74,5.74,5.74,0,0,1-4.36,1.88,4.38,4.38,0,0,1-4.05-2h-.06v7.5h-3.16V36.78c0-1.52,0-3.08-.12-4.69h2.78l.18,2.26h.06a5.63,5.63,0,0,1,9-.56A7.88,7.88,0,0,1,315.82,39m-3.23.11a5.86,5.86,0,0,0-.94-3.43,3.24,3.24,0,0,0-2.75-1.4,3.3,3.3,0,0,0-2.12.77,3.6,3.6,0,0,0-1.25,2,4.18,4.18,0,0,0-.15,1v2.37a3.85,3.85,0,0,0,.95,2.63,3.19,3.19,0,0,0,2.48,1.07,3.23,3.23,0,0,0,2.78-1.38,6,6,0,0,0,1-3.64"/><path class="cls-2" d="M332.2,39a8,8,0,0,1-2,5.74,5.73,5.73,0,0,1-4.36,1.88,4.4,4.4,0,0,1-4.05-2h-.05v7.5H318.6V36.78c0-1.52,0-3.08-.12-4.69h2.79l.17,2.26h.07a5.63,5.63,0,0,1,9-.56A7.88,7.88,0,0,1,332.2,39m-3.22.11a5.93,5.93,0,0,0-.94-3.43,3.26,3.26,0,0,0-2.76-1.4,3.3,3.3,0,0,0-2.12.77,3.65,3.65,0,0,0-1.25,2,4.08,4.08,0,0,0-.14,1v2.37a3.8,3.8,0,0,0,1,2.63,3.17,3.17,0,0,0,2.48,1.07A3.23,3.23,0,0,0,328,42.79a6.11,6.11,0,0,0,1-3.64"/><path class="cls-2" d="M350.52,40.8a5.24,5.24,0,0,1-1.76,4.1,7.78,7.78,0,0,1-5.38,1.73,9.44,9.44,0,0,1-5.12-1.23l.74-2.64A8.66,8.66,0,0,0,343.57,44a4.39,4.39,0,0,0,2.79-.8,2.65,2.65,0,0,0,1-2.16,2.76,2.76,0,0,0-.82-2,7.58,7.58,0,0,0-2.73-1.53q-5.18-1.94-5.18-5.66a5,5,0,0,1,1.82-4,7.15,7.15,0,0,1,4.83-1.56,9.54,9.54,0,0,1,4.49.94L349,29.81a7.78,7.78,0,0,0-3.79-.91,3.79,3.79,0,0,0-2.6.82,2.33,2.33,0,0,0-.79,1.79,2.42,2.42,0,0,0,.9,1.93A10.36,10.36,0,0,0,345.57,35a9.71,9.71,0,0,1,3.75,2.4,5,5,0,0,1,1.2,3.43"/><path class="cls-2" d="M361,34.47h-3.49v6.91c0,1.76.62,2.64,1.85,2.64a5.63,5.63,0,0,0,1.41-.15l.08,2.41a7.21,7.21,0,0,1-2.46.35,3.79,3.79,0,0,1-2.93-1.14,5.64,5.64,0,0,1-1.05-3.84V34.47h-2.08V32.09h2.08V29.48l3.1-.94v3.55H361Z"/><path class="cls-2" d="M376.72,39.1a7.81,7.81,0,0,1-1.87,5.39,6.69,6.69,0,0,1-5.22,2.17,6.4,6.4,0,0,1-5-2.08,7.59,7.59,0,0,1-1.86-5.25,7.74,7.74,0,0,1,1.92-5.42,6.63,6.63,0,0,1,5.17-2.11,6.5,6.5,0,0,1,5,2.08,7.48,7.48,0,0,1,1.82,5.22m-3.28.1a6.4,6.4,0,0,0-.85-3.38,3.12,3.12,0,0,0-2.84-1.71,3.18,3.18,0,0,0-2.91,1.71,6.62,6.62,0,0,0-.84,3.44,6.49,6.49,0,0,0,.84,3.38,3.21,3.21,0,0,0,2.88,1.7,3.15,3.15,0,0,0,2.84-1.73,6.48,6.48,0,0,0,.88-3.41"/><path class="cls-2" d="M387,34.88a5.39,5.39,0,0,0-1-.09,3,3,0,0,0-2.58,1.26,4.78,4.78,0,0,0-.79,2.81v7.48h-3.16l0-9.76c0-1.64,0-3.14-.11-4.49h2.75l.12,2.73h.09a4.87,4.87,0,0,1,1.58-2.26,3.82,3.82,0,0,1,2.29-.76,4.7,4.7,0,0,1,.79.06Z"/><path class="cls-2" d="M401.16,38.54a8.36,8.36,0,0,1-.11,1.44h-9.5a4.14,4.14,0,0,0,1.38,3.22,4.68,4.68,0,0,0,3.11,1,10.53,10.53,0,0,0,3.84-.67l.49,2.2a11.82,11.82,0,0,1-4.78.88,6.91,6.91,0,0,1-5.2-2,7.23,7.23,0,0,1-1.89-5.23,8.2,8.2,0,0,1,1.76-5.37,6.07,6.07,0,0,1,5-2.28,5.33,5.33,0,0,1,4.67,2.28,7.78,7.78,0,0,1,1.25,4.49m-3-.82a4.2,4.2,0,0,0-.61-2.43A2.77,2.77,0,0,0,395,34a3,3,0,0,0-2.52,1.29,4.7,4.7,0,0,0-.94,2.46Z"/><rect x="0.74" y="0.82" width="198.52" height="57.38" rx="7.28"/><path class="cls-1" d="M192.47,59H7.53A7.54,7.54,0,0,1,0,51.42V7.61A7.54,7.54,0,0,1,7.53.08H192.47A7.54,7.54,0,0,1,200,7.61V51.42A7.54,7.54,0,0,1,192.47,59ZM7.53,1.56A6.06,6.06,0,0,0,1.48,7.61V51.42a6.06,6.06,0,0,0,6.05,6H192.47a6.06,6.06,0,0,0,6.05-6V7.61a6.06,6.06,0,0,0-6.05-6.05Z"/><path class="cls-2" d="M100.89,32.27a6.29,6.29,0,1,0,6.31,6.29A6.2,6.2,0,0,0,100.89,32.27Zm0,10.1a3.82,3.82,0,1,1,3.55-3.81A3.64,3.64,0,0,1,100.89,42.37ZM87.12,32.27a6.29,6.29,0,1,0,6.31,6.29A6.21,6.21,0,0,0,87.12,32.27Zm0,10.1a3.82,3.82,0,1,1,3.55-3.81A3.64,3.64,0,0,1,87.12,42.37ZM70.75,34.2v2.67h6.38a5.6,5.6,0,0,1-1.45,3.36,6.55,6.55,0,0,1-4.93,2,7.1,7.1,0,0,1,0-14.19,6.82,6.82,0,0,1,4.81,1.9L77.44,28a9.34,9.34,0,0,0-6.69-2.69,9.77,9.77,0,1,0,0,19.53,9,9,0,0,0,6.81-2.74,8.82,8.82,0,0,0,2.31-6.24,8.35,8.35,0,0,0-.15-1.67Zm67,2.07a5.84,5.84,0,0,0-5.38-4,6,6,0,0,0-5.93,6.29,6.16,6.16,0,0,0,6.24,6.29,6.27,6.27,0,0,0,5.24-2.79l-2.15-1.43a3.58,3.58,0,0,1-3.09,1.74,3.19,3.19,0,0,1-3.05-1.91L138,37Zm-8.57,2.1a3.45,3.45,0,0,1,3.28-3.67A2.44,2.44,0,0,1,134.77,36Zm-6.84,6.1h2.77V26h-2.77Zm-4.52-10.79h-.1a4.35,4.35,0,0,0-3.31-1.41,6.3,6.3,0,0,0,0,12.58,4.29,4.29,0,0,0,3.31-1.43h.1v.9c0,2.41-1.29,3.69-3.36,3.69a3.48,3.48,0,0,1-3.17-2.23l-2.4,1a6,6,0,0,0,5.57,3.71c3.24,0,6-1.9,6-6.55V32.65h-2.62Zm-3.17,8.69a3.82,3.82,0,0,1,0-7.62A3.54,3.54,0,0,1,118,38.58,3.52,3.52,0,0,1,114.62,42.37Zm36-16.38h-6.61V44.47h2.76v-7h3.85a5.74,5.74,0,1,0,0-11.47Zm.07,8.9h-3.92V28.56h3.92a3.17,3.17,0,1,1,0,6.33Zm17.05-2.65a5.17,5.17,0,0,0-4.92,2.83l2.45,1a2.61,2.61,0,0,1,2.52-1.36,2.67,2.67,0,0,1,2.9,2.38v.19a6.18,6.18,0,0,0-2.88-.71c-2.64,0-5.33,1.45-5.33,4.16,0,2.47,2.17,4.06,4.59,4.06a3.89,3.89,0,0,0,3.52-1.8h.1v1.42h2.66V37.35C173.39,34.07,170.94,32.24,167.78,32.24Zm-.33,10.13c-.91,0-2.17-.46-2.17-1.57,0-1.43,1.57-2,2.93-2a5,5,0,0,1,2.52.62A3.36,3.36,0,0,1,167.45,42.37Zm15.64-9.73-3.16,8h-.1l-3.28-8h-3l4.92,11.2-2.81,6.23h2.88l7.59-17.43ZM158.24,44.47H161V26h-2.76Z"/><path class="cls-3" d="M15.6,11.28a2.94,2.94,0,0,0-.69,2.07V46a2.94,2.94,0,0,0,.69,2.07l.11.11L34,29.9v-.43L15.71,11.17Z"/><path class="cls-4" d="M40.1,36,34,29.9v-.43l6.11-6.1.13.07,7.23,4.11c2.06,1.17,2.06,3.09,0,4.27l-7.23,4.1Z"/><path class="cls-5" d="M40.24,35.92,34,29.68,15.6,48.09c.68.72,1.8.81,3.07.09L40.24,35.92"/><path class="cls-6" d="M40.24,23.44,18.67,11.19c-1.27-.72-2.39-.63-3.07.09L34,29.68Z"/><path class="cls-2" d="M67.94,12.32a3.16,3.16,0,0,0-2.09-.81,3.26,3.26,0,0,0-3.22,3.35,3.25,3.25,0,0,0,3.22,3.33,2.52,2.52,0,0,0,2.77-2.35H66.15v-1H70c0,3.05-1.63,4.49-4.11,4.49a4.46,4.46,0,0,1,0-8.92,4.28,4.28,0,0,1,2.94,1.15Z"/><path class="cls-2" d="M76.72,10.49v1.1h-4v2.78h3.47v1.09H72.74v2.63h4.1v1.1H71.57v-8.7Z"/><path class="cls-2" d="M84.33,10.49V11.6H81.69v7.59H80.5V11.6H77.86V10.49Z"/><path class="cls-2" d="M90,10.49v8.7H88.78v-8.7Z"/><path class="cls-2" d="M98,10.49V11.6H95.32v7.59H94.14V11.6H91.5V10.49Z"/><path class="cls-2" d="M106.24,10.39a4.46,4.46,0,1,1-4.39,4.47A4.41,4.41,0,0,1,106.24,10.39Zm0,7.79a3.24,3.24,0,0,0,3.23-3.32,3.23,3.23,0,1,0-6.45,0A3.24,3.24,0,0,0,106.24,18.18Z"/><path class="cls-2" d="M117.6,19.19l-4-6.55v6.55h-1.17v-8.7h1.16l3.92,6.5v-6.5h1.18v8.7Z"/></g></g></svg>