<svg id="Capa_1" data-name="Capa 1" xmlns="http://www.w3.org/2000/svg" viewBox="0 0 120 120"><defs><style>.cls-1{fill:#7a7a7a;}</style></defs><path class="cls-1" d="M21.41,106.85A19.88,19.88,0,0,1,1.58,87V33A19.88,19.88,0,0,1,21.41,13.15H98.59A19.88,19.88,0,0,1,118.42,33V87a19.88,19.88,0,0,1-19.83,19.82ZM11.6,87a9.84,9.84,0,0,0,9.81,9.8H98.59A9.84,9.84,0,0,0,108.4,87V59.33H11.6Zm96.8-52V33a9.84,9.84,0,0,0-9.81-9.8H21.41A9.84,9.84,0,0,0,11.6,33v2Z"/><path class="cls-1" d="M98.6,104.71A17.7,17.7,0,0,0,116.27,87V33A17.7,17.7,0,0,0,98.6,15.29H21.41A17.7,17.7,0,0,0,3.73,33V87A17.7,17.7,0,0,0,21.4,104.71ZM21.41,21H98.6a12,12,0,0,1,11.94,12v4.15H9.46V33A12,12,0,0,1,21.4,21ZM9.46,87V57.18H110.54V87A12,12,0,0,1,98.6,99H21.4A12,12,0,0,1,9.46,87Z"/><path class="cls-1" d="M23,88.14a5,5,0,0,1,0-10H35.44a5,5,0,1,1,0,10Z"/><path class="cls-1" d="M35.44,86a2.87,2.87,0,1,0,0-5.73H23A2.87,2.87,0,1,0,23,86Z"/></svg>