<svg xmlns="http://www.w3.org/2000/svg" xmlns:xlink="http://www.w3.org/1999/xlink" viewBox="0 0 553.95 221.89"><defs><style>.cls-1{fill:#443f41;}.cls-2{opacity:0.6;}.cls-3{fill:#ff7500;}.cls-4,.cls-5{fill:#f67b00;}.cls-5{opacity:0.35;}.cls-6{fill:#383838;}</style><symbol id="texto_precio" data-name="texto precio" viewBox="0 0 758.92 303.99"><path class="cls-1" d="M456.73,212.53V279.8H441.36v-51L429.44,232l-3.75-13.17,17.59-6.34Z"/><path class="cls-1" d="M513.43,257.41c0,13.93-10.19,23.73-25,23.73s-25-9.8-25-23.73a24.51,24.51,0,0,1,3.94-13.65L488,212.53h17.69L491,233.77C504.4,234.82,513.43,244.34,513.43,257.41Zm-15.38,0c0-5.86-4.51-9.32-9.61-9.32s-9.61,3.36-9.61,9.32,4.42,9.32,9.61,9.32S498.05,263.27,498.05,257.41Z"/><path class="cls-1" d="M516,243.26a5.32,5.32,0,1,1,5.32,5.32A5.35,5.35,0,0,1,516,243.26Z"/><path class="cls-1" d="M557.4,235.48c0,8.62-6.72,13.1-14.28,13.1-6.22,0-11.6-2.63-14-8.4l7.73-4.48c.9,2.58,2.58,4.15,6.28,4.15s5.32-2,5.32-4.37-1.63-4.37-5-4.37H531.13l1.62-22.52h22.69V217H541.16l-.4,5.38H544C551.24,222.37,557.4,226.85,557.4,235.48Z"/><path class="cls-1" d="M588.15,236.76c0,7.17-5.15,11.82-14.39,11.82s-14.4-4.65-14.4-11.82a11,11,0,0,1,5.1-9.41,9.52,9.52,0,0,1-3.75-7.89c0-7.62,5.82-11.66,13-11.66s13,4,13,11.66a9.54,9.54,0,0,1-3.75,7.89A10.94,10.94,0,0,1,588.15,236.76Zm-9-1.28c0-3-2.29-4.71-5.43-4.71s-5.43,1.74-5.43,4.71,2.29,4.7,5.43,4.7S579.19,238.45,579.19,235.48ZM569.67,220a4.1,4.1,0,1,0,4.09-3.81A3.76,3.76,0,0,0,569.67,220Z"/><path class="cls-1" d="M418.3,280.48v5h-4v-5c-6.44-.46-11.23-3.76-13.28-9.23l7.86-4.56c1.2,2.73,2.85,4.33,5.42,4.79v-7.87c-.23-.11-.52-.17-.74-.29-5-2-10.89-4.78-10.89-12.42,0-7.41,5.59-11.23,11.63-11.8v-4.95h4v5.07a13.58,13.58,0,0,1,11.22,8.26l-7.69,4.5a5.61,5.61,0,0,0-3.53-3.7V256c4.95,2.11,11.68,4,11.68,12.31C430,275.47,425.08,279.68,418.3,280.48Zm-4-26.33v-6A2.89,2.89,0,0,0,411.8,251C411.8,252.1,412.31,253,414.31,254.15Zm6.55,14.31c0-1.43-.85-2.28-2.56-3.14v6.1A3,3,0,0,0,420.86,268.46Z"/><path class="cls-1" d="M528.74,257.9h3v11.52h-3v-1.36a4.5,4.5,0,0,1-3.76,1.69,5.22,5.22,0,0,1-4-1.77,6.48,6.48,0,0,1,0-8.64,5.22,5.22,0,0,1,4-1.77,4.53,4.53,0,0,1,3.76,1.69Zm-5.49,8.1a3.07,3.07,0,0,0,2.29.91,3.1,3.1,0,0,0,2.29-.91,3.46,3.46,0,0,0,0-4.68,3.1,3.1,0,0,0-2.29-.91,3.07,3.07,0,0,0-2.29.91,3.49,3.49,0,0,0,0,4.68Z"/><path class="cls-1" d="M534.41,269.42V252.59h3v16.83Z"/><path class="cls-1" d="M558.62,257.57a4.07,4.07,0,0,1,3.17,1.3,4.9,4.9,0,0,1,1.19,3.45v7.1h-3v-6.89a2.39,2.39,0,0,0-.5-1.61,1.8,1.8,0,0,0-1.43-.58,1.93,1.93,0,0,0-1.58.67,2.92,2.92,0,0,0-.57,1.94v6.47h-3v-6.89a2.34,2.34,0,0,0-.51-1.61,1.78,1.78,0,0,0-1.43-.58,2,2,0,0,0-1.58.67,2.87,2.87,0,0,0-.59,1.94v6.47h-3V257.9h3v1.22a3.61,3.61,0,0,1,3.21-1.55,3.42,3.42,0,0,1,3.13,1.66A3.94,3.94,0,0,1,558.62,257.57Z"/><path class="cls-1" d="M568,264.88c.4,1.45,1.48,2.17,3.25,2.17a3,3,0,0,0,2.58-1.15l2.4,1.38a5.72,5.72,0,0,1-5,2.47,6.21,6.21,0,0,1-4.59-1.73A6.09,6.09,0,0,1,571,257.57a5.49,5.49,0,0,1,4.18,1.76,6.08,6.08,0,0,1,1.65,4.33,7.57,7.57,0,0,1-.11,1.22Zm0-2.3h5.88a2.76,2.76,0,0,0-1.05-1.75,3,3,0,0,0-1.81-.58,3.1,3.1,0,0,0-2,.61A2.9,2.9,0,0,0,568,262.58Z"/><path class="cls-1" d="M581.19,261.17c0,.31.2.56.61.75a8.57,8.57,0,0,0,1.49.51A14.71,14.71,0,0,1,585,263a3.45,3.45,0,0,1,1.49,1.12,3.46,3.46,0,0,1-.72,4.69,5.47,5.47,0,0,1-3.31,1c-2.36,0-4-.92-4.84-2.75l2.58-1.45a2.15,2.15,0,0,0,2.26,1.5q1.59,0,1.59-1c0-.31-.2-.56-.61-.75a8.39,8.39,0,0,0-1.48-.52,13.41,13.41,0,0,1-1.76-.58,3.53,3.53,0,0,1-1.48-1.09,2.87,2.87,0,0,1-.61-1.88,3.22,3.22,0,0,1,1.25-2.69,5,5,0,0,1,3.13-1,5.28,5.28,0,0,1,2.56.64,4.66,4.66,0,0,1,1.82,1.81l-2.54,1.38a1.89,1.89,0,0,0-1.84-1.17,1.67,1.67,0,0,0-1,.25A.8.8,0,0,0,581.19,261.17Z"/><g class="cls-2"><polygon class="cls-3" points="434.24 282.71 431.94 277.2 589.48 211.45 591.78 216.97 434.24 282.71"/><polygon class="cls-3" points="589.48 282.71 431.94 216.97 434.24 211.45 591.78 277.2 589.48 282.71"/></g><path class="cls-1" d="M417.29,180.32a5.53,5.53,0,0,1-5.64,5.53h-2.42v5.08h-3.69V174.79h6.11A5.53,5.53,0,0,1,417.29,180.32Zm-3.68,0a2,2,0,0,0-2-2.07h-2.42v4.15h2.42A2,2,0,0,0,413.61,180.32Z"/><path class="cls-1" d="M424.58,185.62h-1.75v5.31h-3.69V174.79h6.45a5.52,5.52,0,0,1,5.54,5.53,5.32,5.32,0,0,1-3,4.68l3.44,5.93h-4Zm-1.75-3.22h2.76a2.09,2.09,0,0,0,0-4.15h-2.76Z"/><path class="cls-1" d="M443.46,187.38v3.55H433.32V174.79h10v3.55H437V181h5.76v3.51H437v2.86Z"/><path class="cls-1" d="M444.73,182.86a8.19,8.19,0,0,1,8.39-8.4A8.07,8.07,0,0,1,460,178.2L456.86,180a4.19,4.19,0,0,0-3.74-2,4.8,4.8,0,0,0,0,9.59,4.14,4.14,0,0,0,3.74-2l3.18,1.84a8,8,0,0,1-6.92,3.74A8.18,8.18,0,0,1,444.73,182.86Z"/><path class="cls-1" d="M465.46,174.79v16.14h-3.69V174.79Z"/><path class="cls-1" d="M467.53,182.86a8.4,8.4,0,1,1,8.39,8.39A8.33,8.33,0,0,1,467.53,182.86Zm13.1,0a4.71,4.71,0,1,0-4.71,4.79A4.6,4.6,0,0,0,480.63,182.86Z"/><path class="cls-1" d="M497.59,185.62h-1.75v5.31h-3.69V174.79h6.46a5.51,5.51,0,0,1,5.53,5.53,5.33,5.33,0,0,1-3,4.68l3.43,5.93h-4Zm-1.75-3.22h2.77a2.09,2.09,0,0,0,0-4.15h-2.77Z"/><path class="cls-1" d="M516.48,187.38v3.55H506.33V174.79h10v3.55H510V181h5.77v3.51H510v2.86Z"/><path class="cls-1" d="M534.41,183.32c0,4.93-3.43,7.93-7.95,7.93a8.4,8.4,0,1,1-.25-16.79,8.26,8.26,0,0,1,7,3.69l-3.13,1.8a4.85,4.85,0,0,0-8.7,3c0,2.75,1.94,4.75,5.08,4.75,2.14,0,3.55-.94,4.12-2.49h-4.31v-3.23h8.09Z"/><path class="cls-1" d="M536.26,185.72V174.79H540v10.6c0,1.23.57,2.26,2.53,2.26s2.54-1,2.54-2.26v-10.6h3.69v10.93c0,3.45-2.68,5.53-6.23,5.53S536.26,189.17,536.26,185.72Z"/><path class="cls-1" d="M560.81,187.38v3.55h-9.45V174.79h3.69v12.59Z"/><path class="cls-1" d="M572.34,188.39h-6l-.8,2.54h-4L567,174.79h4.7l5.49,16.14h-4Zm-1.11-3.46L569.34,179l-1.89,5.92Z"/><path class="cls-1" d="M584,185.62h-1.75v5.31h-3.69V174.79H585a5.52,5.52,0,0,1,5.53,5.53,5.33,5.33,0,0,1-3,4.68l3.43,5.93h-4Zm-1.75-3.22H585a2.09,2.09,0,0,0,0-4.15h-2.77Z"/><path class="cls-4" d="M264.06,215.13V230.4l-26,64.52H218.69l25.08-62.24H211.62V215.13Z"/><path class="cls-4" d="M267.05,251.58a6.32,6.32,0,1,1,6.32,6.31A6.36,6.36,0,0,1,267.05,251.58Z"/><path class="cls-4" d="M282.8,249.25,298.42,233c2.73-2.79,4.72-5.51,4.72-8.24a4.63,4.63,0,0,0-5-4.92c-3.26,0-5.59,2.13-6.85,5l-9-5.25A16.59,16.59,0,0,1,298,209.5c8.31,0,15.76,5.46,15.76,14.83,0,5.58-3,10.37-7.25,14.62l-7.71,7.78h15.62V257H282.8Z"/><path class="cls-4" d="M351.26,243.87c0,8.51-6.11,14-17.08,14s-17.08-5.51-17.08-14a13,13,0,0,1,6-11.17,11.32,11.32,0,0,1-4.46-9.37c0-9,6.92-13.83,15.49-13.83s15.49,4.79,15.49,13.83a11.32,11.32,0,0,1-4.46,9.37A13,13,0,0,1,351.26,243.87Zm-10.63-1.53c0-3.52-2.73-5.58-6.45-5.58s-6.45,2.06-6.45,5.58,2.73,5.58,6.45,5.58S340.63,245.86,340.63,242.34ZM329.33,224c0,2.6,1.86,4.52,4.85,4.52S339,226.59,339,224s-1.86-4.52-4.85-4.52S329.33,221.4,329.33,224Z"/><path class="cls-4" d="M193.72,295.74v5.95H189V295.8c-7.64-.54-13.32-4.46-15.75-10.95l9.33-5.41c1.42,3.25,3.38,5.14,6.42,5.68v-9.33c-.27-.13-.61-.2-.88-.34-5.88-2.36-12.91-5.68-12.91-14.74,0-8.79,6.62-13.32,13.79-14v-5.88h4.73v6A16.15,16.15,0,0,1,207,256.66L197.91,262a6.64,6.64,0,0,0-4.19-4.4v9.13c5.88,2.5,13.86,4.73,13.86,14.6C207.58,289.79,201.77,294.79,193.72,295.74ZM189,264.5v-7.1a3.44,3.44,0,0,0-3,3.38C186,262.07,186.62,263.15,189,264.5Zm7.77,17c0-1.69-1-2.7-3-3.72V285C196,284.38,196.76,282.89,196.76,281.47Z"/><path class="cls-4" d="M278.51,268.94H282v13.68h-3.53V281a5.37,5.37,0,0,1-4.46,2,6.22,6.22,0,0,1-4.69-2.09,7.72,7.72,0,0,1,0-10.26,6.22,6.22,0,0,1,4.69-2.09,5.37,5.37,0,0,1,4.46,2ZM272,278.56a3.65,3.65,0,0,0,2.71,1.08,3.69,3.69,0,0,0,2.72-1.08,4.12,4.12,0,0,0,0-5.56,3.69,3.69,0,0,0-2.72-1.08A3.65,3.65,0,0,0,272,273a4.18,4.18,0,0,0,0,5.56Z"/><path class="cls-4" d="M285.24,282.62v-20h3.53v20Z"/><path class="cls-4" d="M314,268.56a4.86,4.86,0,0,1,3.76,1.53,5.82,5.82,0,0,1,1.41,4.1v8.43H315.6v-8.18a2.83,2.83,0,0,0-.6-1.92,2.16,2.16,0,0,0-1.7-.68,2.31,2.31,0,0,0-1.87.79,3.47,3.47,0,0,0-.67,2.3v7.69h-3.53v-8.18a2.83,2.83,0,0,0-.6-1.92,2.16,2.16,0,0,0-1.7-.68,2.35,2.35,0,0,0-1.87.79,3.37,3.37,0,0,0-.7,2.3v7.69h-3.53V268.94h3.53v1.45a4.26,4.26,0,0,1,3.8-1.83,4,4,0,0,1,3.72,2A4.63,4.63,0,0,1,314,268.56Z"/><path class="cls-4" d="M325.12,277.23q.7,2.56,3.86,2.57a3.6,3.6,0,0,0,3.06-1.37l2.84,1.64a6.78,6.78,0,0,1-6,2.93,7.35,7.35,0,0,1-5.44-2.05,7,7,0,0,1-2.05-5.17,7.08,7.08,0,0,1,2-5.16,7,7,0,0,1,5.2-2.06,6.5,6.5,0,0,1,5,2.08,7.18,7.18,0,0,1,2,5.14,8.35,8.35,0,0,1-.14,1.45Zm-.06-2.74h7a3.27,3.27,0,0,0-1.25-2.07,3.51,3.51,0,0,0-2.14-.69,3.66,3.66,0,0,0-2.35.73A3.46,3.46,0,0,0,325.06,274.49Z"/><path class="cls-4" d="M340.74,272.83c0,.36.24.66.72.88a10.07,10.07,0,0,0,1.77.61,19.1,19.1,0,0,1,2.08.65,4.07,4.07,0,0,1,1.76,1.33,3.67,3.67,0,0,1,.72,2.32,3.76,3.76,0,0,1-1.57,3.25A6.58,6.58,0,0,1,342.3,283q-4.21,0-5.75-3.25l3.07-1.73a2.53,2.53,0,0,0,2.68,1.78c1.25,0,1.88-.39,1.88-1.18,0-.36-.24-.66-.72-.89a10.63,10.63,0,0,0-1.77-.61,18.52,18.52,0,0,1-2.07-.68,4.3,4.3,0,0,1-1.77-1.3,3.45,3.45,0,0,1-.72-2.23,3.82,3.82,0,0,1,1.49-3.19,5.86,5.86,0,0,1,3.7-1.16,6.2,6.2,0,0,1,3,.75,5.51,5.51,0,0,1,2.16,2.15l-3,1.64a2.26,2.26,0,0,0-2.19-1.4,2,2,0,0,0-1.13.3A1,1,0,0,0,340.74,272.83Z"/><path class="cls-1" d="M156.47,175.87a7.12,7.12,0,0,1-7.25,7.11h-3.11v6.51h-4.74V168.77h7.85A7.12,7.12,0,0,1,156.47,175.87Zm-4.74,0a2.52,2.52,0,0,0-2.51-2.66h-3.11v5.33h3.11A2.53,2.53,0,0,0,151.73,175.87Z"/><path class="cls-1" d="M165.83,182.68h-2.25v6.81h-4.74V168.77h8.29a7.08,7.08,0,0,1,7.1,7.1,6.83,6.83,0,0,1-3.81,6l4.41,7.61h-5.1Zm-2.25-4.14h3.55a2.68,2.68,0,0,0,0-5.33h-3.55Z"/><path class="cls-1" d="M190.07,184.93v4.56h-13V168.77h12.87v4.56h-8.14v3.43h7.41v4.5h-7.41v3.67Z"/><path class="cls-1" d="M191.7,179.13a10.51,10.51,0,0,1,10.78-10.78,10.34,10.34,0,0,1,8.88,4.8l-4.09,2.37a5.34,5.34,0,0,0-4.79-2.55c-3.67,0-6,2.46-6,6.16s2.37,6.16,6,6.16a5.31,5.31,0,0,0,4.79-2.55l4.09,2.37a10.26,10.26,0,0,1-8.88,4.79A10.5,10.5,0,0,1,191.7,179.13Z"/><path class="cls-1" d="M218.32,168.77v20.72h-4.74V168.77Z"/><path class="cls-1" d="M221,179.13a10.78,10.78,0,1,1,10.78,10.77A10.69,10.69,0,0,1,221,179.13Zm16.82,0a6,6,0,1,0-6,6.16A5.9,5.9,0,0,0,237.8,179.13Z"/><path class="cls-4" d="M251.46,175.54A14.15,14.15,0,0,1,266,161a13.9,13.9,0,0,1,11.95,6.46l-5.5,3.19a7.18,7.18,0,0,0-6.45-3.43c-4.94,0-8.13,3.31-8.13,8.29s3.19,8.29,8.13,8.29a7.16,7.16,0,0,0,6.45-3.43l5.5,3.19A13.8,13.8,0,0,1,266,190.05,14.15,14.15,0,0,1,251.46,175.54Z"/><path class="cls-4" d="M301.24,171.16a9.58,9.58,0,0,1-9.76,9.56h-4.19v8.77h-6.38v-27.9h10.57A9.58,9.58,0,0,1,301.24,171.16Zm-6.38,0a3.4,3.4,0,0,0-3.38-3.59h-4.19v7.17h4.19A3.4,3.4,0,0,0,294.86,171.16Z"/><path class="cls-4" d="M326.35,161.59v27.9h-4.78L310.8,174.34v15.15h-6.37v-27.9h4.78L320,176.74V161.59Z"/><path class="cls-5" d="M113.14,263.21s8.25,2.23,20.65,19.42c0,0,4.12-23.13,44.6-52.09,0,0-12.43,9.61-24,28.78-5.89,9.77-10.44,22.82-16.91,38.9-5.17,12.17-7.07,3.11-10.68-8.79C123.85,279.67,119.68,268.12,113.14,263.21Z"/><path class="cls-4" d="M179.19,245.09l-1.14,1.56.87-.82c1.23.45.1,1.4-.26,1.72C180.38,246.89,179,245.88,179.19,245.09Z"/><path class="cls-4" d="M176.65,246.62c-.9.08-.46.87,0,1.07C176.59,247.32,177.08,246.82,176.65,246.62Z"/><path class="cls-4" d="M133.84,280.17c.26-.19.48-.45.7-.33C134.38,279.49,134.2,279.37,133.84,280.17Z"/><polygon class="cls-4" points="134.54 279.84 134.62 280.06 134.61 279.88 134.54 279.84"/><path class="cls-4" d="M151.69,269.26c0-1.06.58-1.21.83-2l1.11.32c.33-.82-.44-.84-.42-1.65,1.08-.12,1.78-1.73,2.08-2,.54.16.27.72.4,1,.43-1-.35-1.67.56-2.59l.21.2c1.44-3,4.9-5.18,7.77-7.49-.24.06-.29-.17-.48-.31,3.19-2.32,7.62-3.48,10.07-6.89-2.09.7-6.3.6-7.77,3-1.15-.48-1.81,1.16-2.59.36-3.08,1.22-3.49,3.19-5.86,5-.46.11-.61-.44-1-.77a15.24,15.24,0,0,1,1.74-1.85,8.1,8.1,0,0,0-1.51.5c.21-.87,1.87-1.31,1.53-2.22-1.42,1.91-4.63,3.62-5.34,5.72a20.75,20.75,0,0,0,2.49-1.81c.58,0,1.3-.24,1.57.21-1.44,2.93-3.85,3.7-5.48,6.27-.42.61-1.18,1.26-1.66,1,.21-.46-.38-.47-.28-.92-.41,1,1.34,1.27.14,2.21l-1.27-1.26c1.1,1.64-1.39,1.32-1.15,2.85-.83-.09-.74-.92-.27-1.64-.83.6,0,1.28-.5,1.88l-.82-1.47c.7,1.5-1.12,1-1.83,1.18.28.24,1.52.52.83,1.31-.43.26-.63-.13-.87-.16a1.42,1.42,0,0,1,.36,1.53c-.51-.15-.45-.79-.87-1.1-.23.47-.36.9-.92,1-.08,1,.68.31.89,1.07-1,1.06-1.63-.72-2.85-.78a23.15,23.15,0,0,1,.41-3.44l-.74,2.1c-.46-.42-1.64.8-1.58-.5-1.62,1.68-2.33,4.37-2.61,6.5.31-.2.58-.5.9-.29-.09,1.12-.74.72-1.24.77.08.89,1.08,1.18,1.62,1.9-1.48,1.16-1,1.57-2.63,2.48l1,.24c-1.1.67.36,1.27-.55,2.08-.23,0-.37-.47-.5-.84,0,1-1.11.57-1,1.55l-.89-1c-.22.71-.13,1.85-1,1.22.85,1.55-.21,3.6.14,5.28l-.87-.28c.49.54.23,1.27.09,2h0a24.82,24.82,0,0,0-8.45-9.05c-.64-.64-2.52-.45-3.67-.72.76,1.07,1.28.7,2.21,1.58.44.9-.24,2-.31,3l.5-.93c1.46.39.12,1,1.55,1.08l-1.33.95c.89-.26.84.83.66,1.34l1.12-.37c-.09,1,0,1.49-.83,2.22l.86-.58c-.42.57,1.58,2.48-.44,2.52.32.08.88,0,1,.52l-.9.52c.57.51,1.11,1.13.67,1.55a1.94,1.94,0,0,0-1.33-.07c1.14,2.77,3.36-.85,4.63,1.62l-.64.23,1,.37-.49,1c1.28,0,1.6.92,1.91,2.05a9.36,9.36,0,0,0,1.4,2.68c.52.82,3.64,1.64,5.09.53s1-1,1.3-1.27a4.37,4.37,0,0,0,.39-1.55c.28-1.4,1.61-1.65,1.8-3.21l-1.05-.09c1.22-.87,2.6-4.52,5.16-4.87-.61-1.07-.23.05-1-.14-.71-2,1-1.74,1.79-2.49-.24-1.16-.59.7-1.21,0,1.19-1.42-.95-1.64.3-3.45.63,0,.22.6.55.91-.56-1.62.78-4.06,1.45-6,1.52-2,3.44-5,5.59-6.78l-.3-.24c1.44-.4,1.42-1.81,2.52-2.6Z"/><path class="cls-4" d="M158.41,250.62l-.7-.62-1,1.24C157.6,251.53,157.55,250.88,158.41,250.62Z"/><polygon class="cls-4" points="159.51 253.04 159.97 252.33 158.91 252.97 159.51 253.04"/><polygon class="cls-4" points="144.86 264.24 145.09 264.16 146.18 261.45 144.86 264.24"/><path class="cls-4" d="M133,279.81c-.35-.45,0-.85-.2-1.27V280Z"/><path class="cls-4" d="M126.47,291.69c1.49.76-.19,1,1.36.57C127.71,291.45,127,292,126.47,291.69Z"/><path class="cls-4" d="M128.28,294.67a.83.83,0,0,0-.27-.84C127.22,294.16,128,294.33,128.28,294.67Z"/><path class="cls-4" d="M125.87,303.18a2.69,2.69,0,0,1-3.81,0,2.64,2.64,0,0,1-.78-1.91,2.69,2.69,0,0,1,4.59-1.9,2.55,2.55,0,0,1,.79,1.9A2.61,2.61,0,0,1,125.87,303.18Zm-3.54-3.55A2.31,2.31,0,1,0,124,299,2.23,2.23,0,0,0,122.33,299.63Zm1.58.15a2.26,2.26,0,0,1,.81.11.73.73,0,0,1,.46.75.65.65,0,0,1-.29.58,1,1,0,0,1-.43.14.77.77,0,0,1,.51.29.8.8,0,0,1,.16.46v.22a1.77,1.77,0,0,0,0,.22.44.44,0,0,0,0,.15l0,0h-.49v-.39c0-.35-.09-.57-.28-.68a1.28,1.28,0,0,0-.58-.1h-.41v1.17h-.52v-3Zm.57.47a1.45,1.45,0,0,0-.63-.11h-.45v1.07h.47a1.29,1.29,0,0,0,.5-.07.53.53,0,0,0,.11-.89Z"/><path class="cls-4" d="M0,32.42C0,20.19,9.08,10.81,21.61,10.81a20.72,20.72,0,0,1,17.81,9.62l-8.19,4.75a10.74,10.74,0,0,0-9.62-5.11C14.25,20.07,9.5,25,9.5,32.42s4.75,12.35,12.11,12.35c4.22,0,7.84-1.9,9.62-5.1l8.19,4.75A20.58,20.58,0,0,1,21.61,54C9.08,54,0,44.65,0,32.42Z"/><path class="cls-4" d="M74.16,25.89A14.29,14.29,0,0,1,59.61,40.14H53.38V53.2h-9.5V11.64H59.61A14.29,14.29,0,0,1,74.16,25.89Zm-9.5,0a5.08,5.08,0,0,0-5-5.34H53.38V31.24h6.23A5.09,5.09,0,0,0,64.66,25.89Z"/><path class="cls-4" d="M111.56,11.64V53.2h-7.12l-16-22.56V53.2h-9.5V11.64H86l16,22.56V11.64Z"/><path class="cls-6" d="M144.51,32.07V42.58c0,2.55,2.2,2.79,6.12,2.55V53.2c-11.64,1.19-15-2.31-15-10.62V32.07h-4.75V23.52h4.75V17.88l8.9-2.67v8.31h6.12v8.55Z"/><path class="cls-6" d="M170.16,46.08a7.72,7.72,0,0,0,5.7-2.26l7.13,4.1c-2.91,4-7.31,6.11-13,6.11-10.15,0-16.44-6.82-16.44-15.67S160,22.69,169.39,22.69c8.67,0,15.08,6.7,15.08,15.67a17.76,17.76,0,0,1-.35,3.56H163C164.17,45,166.9,46.08,170.16,46.08Zm5.46-10.81a6.11,6.11,0,0,0-6.29-4.69c-3.38,0-5.64,1.67-6.47,4.69Z"/><path class="cls-6" d="M234.82,23.52V53.2h-8.91V50.41C224,52.67,221,54,217.07,54c-7.78,0-14.19-6.82-14.19-15.67s6.41-15.67,14.19-15.67c4,0,6.88,1.36,8.84,3.62V23.52Zm-8.91,14.84c0-4.45-3-7.24-7.06-7.24s-7.07,2.79-7.07,7.24,3,7.24,7.07,7.24S225.91,42.81,225.91,38.36Z"/><path class="cls-6" d="M269.85,35V53.2h-8.91V36.28c0-3.68-2.31-5.4-5.16-5.4-3.27,0-5.52,1.9-5.52,6.11V53.2h-8.91V11.64h8.91V26.31c1.6-2.2,4.57-3.62,8.49-3.62C264.74,22.69,269.85,27,269.85,35Z"/><path class="cls-6" d="M274.48,38.36A15.74,15.74,0,1,1,290.21,54,15.56,15.56,0,0,1,274.48,38.36Zm22.56,0a6.83,6.83,0,1,0-13.65,0,6.83,6.83,0,1,0,13.65,0Z"/><path class="cls-6" d="M328.81,22.92V33c-3.69-.6-8.91.89-8.91,6.77V53.2H311V23.52h8.91V28.8C321.09,24.82,325.07,22.92,328.81,22.92Z"/><path class="cls-6" d="M350.77,22.92V33c-3.68-.6-8.9.89-8.9,6.77V53.2H333V23.52h8.91V28.8C343.06,24.82,347,22.92,350.77,22.92Z"/><path class="cls-6" d="M384.5,23.52V53.2h-8.91V50.41c-2,2.26-4.87,3.62-8.84,3.62-7.78,0-14.19-6.82-14.19-15.67S359,22.69,366.75,22.69c4,0,6.88,1.36,8.84,3.62V23.52Zm-8.91,14.84c0-4.45-3-7.24-7.06-7.24s-7.07,2.79-7.07,7.24,3,7.24,7.07,7.24S375.59,42.81,375.59,38.36Z"/><path class="cls-6" d="M421,46.08a7.73,7.73,0,0,0,5.7-2.26l7.13,4.1c-2.91,4-7.31,6.11-12.95,6.11-10.15,0-16.44-6.82-16.44-15.67s6.41-15.67,15.79-15.67c8.67,0,15.08,6.7,15.08,15.67a17.05,17.05,0,0,1-.36,3.56H413.83C415,45,417.69,46.08,421,46.08Zm5.46-10.81a6.11,6.11,0,0,0-6.29-4.69c-3.38,0-5.64,1.67-6.47,4.69Z"/><path class="cls-6" d="M440.31,9.86h8.9V53.2h-8.9Z"/><path class="cls-4" d="M507.22,36.48c0,11.71-9.12,17.79-19.38,17.79-8.43,0-15.73-3.57-19-11.4l10.49-6.08c1.22,3.49,3.5,5.62,8.51,5.62s7.22-2.66,7.22-5.93-2.2-5.93-6.84-5.93H471.58L473.78,0h30.78V11.4H485.18l-.53,7.3H489C498.86,18.7,507.22,24.78,507.22,36.48Z"/><path class="cls-4" d="M550.16,35.49c0,11-8,18.78-19.76,18.78s-19.76-7.76-19.76-18.78a19.37,19.37,0,0,1,3.12-10.79L530,0h14L532.45,16.8C543,17.63,550.16,25.16,550.16,35.49Zm-12.16,0c0-4.63-3.57-7.37-7.6-7.37s-7.6,2.66-7.6,7.37,3.5,7.38,7.6,7.38S538,40.13,538,35.49Z"/><path class="cls-4" d="M554.55,14.17A12.16,12.16,0,0,1,567,2a12,12,0,0,1,12.41,12.19,12.45,12.45,0,0,1-24.9,0Zm38.39-4.73,4.73,2.72-32.43,36-4.73-2.8Zm-22.1,4.73a3.84,3.84,0,1,0-7.68,0,3.77,3.77,0,0,0,3.8,4A3.88,3.88,0,0,0,570.84,14.17Zm9.32,27.7a12.45,12.45,0,1,1,12.49,12.19A12.16,12.16,0,0,1,580.16,41.87Zm16.29,0a3.84,3.84,0,1,0-3.87,3.94A3.87,3.87,0,0,0,596.45,41.87Z"/><path class="cls-6" d="M644.21,46.08a7.75,7.75,0,0,0,5.7-2.26l7.12,4.1c-2.91,4-7.3,6.11-12.94,6.11-10.15,0-16.44-6.82-16.44-15.67s6.41-15.67,15.79-15.67c8.67,0,15.08,6.7,15.08,15.67a17.05,17.05,0,0,1-.36,3.56H637.09C638.21,45,640.94,46.08,644.21,46.08Zm5.46-10.81a6.11,6.11,0,0,0-6.29-4.69c-3.39,0-5.64,1.67-6.47,4.69Z"/><path class="cls-6" d="M692.06,35V53.2h-8.9V36.28c0-3.68-2.32-5.4-5.17-5.4-3.26,0-5.52,1.9-5.52,6.11V53.2h-8.91V23.52h8.91v2.79c1.6-2.2,4.57-3.62,8.49-3.62C687,22.69,692.06,27,692.06,35Z"/><path class="cls-6" d="M713,9.86h8.91V53.2H713Z"/><path class="cls-6" d="M758.92,23.52V53.2H750V50.41c-2,2.26-4.87,3.62-8.85,3.62C733.39,54,727,47.21,727,38.36s6.41-15.67,14.18-15.67c4,0,6.89,1.36,8.85,3.62V23.52ZM750,38.36c0-4.45-3-7.24-7.06-7.24s-7.07,2.79-7.07,7.24,3,7.24,7.07,7.24S750,42.81,750,38.36Z"/><path class="cls-6" d="M45.87,103.67c0,6.83-5.93,9.74-12.35,9.74-5.93,0-10.45-2.26-12.76-7.07L28.48,102a4.86,4.86,0,0,0,5,3.5c2.14,0,3.21-.65,3.21-1.84,0-3.26-14.61-1.54-14.61-11.81,0-6.48,5.47-9.74,11.64-9.74a13,13,0,0,1,11.58,6.35l-7.6,4.1a4.3,4.3,0,0,0-4-2.61c-1.54,0-2.49.59-2.49,1.66C31.27,94.94,45.87,92.69,45.87,103.67Z"/><path class="cls-6" d="M78.41,82.89v29.69H69.5v-2.79c-1.6,2.19-4.57,3.62-8.49,3.62-6,0-11.1-4.28-11.1-12.29V82.89h8.91V99.81c0,3.68,2.31,5.4,5.16,5.4,3.27,0,5.52-1.9,5.52-6.11V82.89Z"/><path class="cls-6" d="M107.68,103.67c0,6.83-5.94,9.74-12.35,9.74-5.94,0-10.45-2.26-12.76-7.07L90.28,102a4.88,4.88,0,0,0,5,3.5c2.14,0,3.21-.65,3.21-1.84,0-3.26-14.61-1.54-14.61-11.81,0-6.48,5.46-9.74,11.64-9.74a13,13,0,0,1,11.58,6.35l-7.6,4.1a4.31,4.31,0,0,0-4-2.61c-1.55,0-2.5.59-2.5,1.66C93.07,94.94,107.68,92.69,107.68,103.67Z"/><path class="cls-6" d="M110.35,97.73a15.7,15.7,0,0,1,29.15-8.07l-7.77,4.51A6.14,6.14,0,0,0,126,90.85a6.89,6.89,0,0,0,0,13.77,6.1,6.1,0,0,0,5.76-3.32l7.77,4.45a15.15,15.15,0,0,1-13.41,7.66A15.38,15.38,0,0,1,110.35,97.73Z"/><path class="cls-6" d="M161.17,82.3V92.39c-3.68-.59-8.9.89-8.9,6.77v13.42h-8.91V82.89h8.91v5.28C153.46,84.2,157.43,82.3,161.17,82.3Z"/><path class="cls-6" d="M164.44,74.93a5.35,5.35,0,1,1,5.34,5.35A5.4,5.4,0,0,1,164.44,74.93Zm.89,8h8.91v29.69h-8.91Z"/><path class="cls-6" d="M212.71,97.73c0,8.85-6.41,15.68-14.19,15.68-4,0-6.89-1.37-8.85-3.62v14.66h-8.9V82.89h8.9v2.79c2-2.26,4.87-3.62,8.85-3.62C206.3,82.06,212.71,88.89,212.71,97.73Zm-8.91,0c0-4.45-3-7.24-7.06-7.24s-7.07,2.79-7.07,7.24,3,7.25,7.07,7.25S203.8,102.19,203.8,97.73Z"/><path class="cls-6" d="M216.27,97.73a15.7,15.7,0,0,1,29.15-8.07l-7.77,4.51a6.14,6.14,0,0,0-5.76-3.32,6.89,6.89,0,0,0,0,13.77,6.1,6.1,0,0,0,5.76-3.32l7.77,4.45A15.15,15.15,0,0,1,232,113.41,15.38,15.38,0,0,1,216.27,97.73Z"/><path class="cls-6" d="M248.1,74.93a5.34,5.34,0,1,1,5.34,5.35A5.4,5.4,0,0,1,248.1,74.93Zm.89,8h8.9v29.69H249Z"/><path class="cls-6" d="M262.94,97.73a15.74,15.74,0,1,1,15.73,15.68A15.56,15.56,0,0,1,262.94,97.73Zm22.56,0a6.83,6.83,0,1,0-6.83,7A6.66,6.66,0,0,0,285.5,97.73Zm-3.62-19,6.89-8.31H278.08l-4.75,8.31Z"/><path class="cls-6" d="M328,94.35v18.23h-8.9V95.66c0-3.69-2.32-5.41-5.17-5.41-3.26,0-5.52,1.9-5.52,6.12v16.21h-8.91V82.89h8.91v2.79c1.6-2.2,4.57-3.62,8.49-3.62C322.85,82.06,328,86.33,328,94.35Z"/><path class="cls-6" d="M345.65,71H356l9.2,30.57L374.44,71h10.39l-13.54,41.56H359.18Z"/><path class="cls-6" d="M386,74.93a5.35,5.35,0,1,1,5.34,5.35A5.4,5.4,0,0,1,386,74.93Zm.89,8h8.91v29.69h-8.91Z"/><path class="cls-6" d="M425.09,103.67c0,6.83-5.94,9.74-12.35,9.74-5.94,0-10.45-2.26-12.77-7.07l7.72-4.39a4.87,4.87,0,0,0,5.05,3.5c2.13,0,3.2-.65,3.2-1.84,0-3.26-14.6-1.54-14.6-11.81,0-6.48,5.46-9.74,11.63-9.74a13,13,0,0,1,11.58,6.35l-7.6,4.1a4.3,4.3,0,0,0-4-2.61c-1.54,0-2.49.59-2.49,1.66C410.48,94.94,425.09,92.69,425.09,103.67Z"/><path class="cls-6" d="M428.65,74.93A5.35,5.35,0,1,1,434,80.28,5.4,5.4,0,0,1,428.65,74.93Zm.89,8h8.91v29.69h-8.91Z"/><path class="cls-6" d="M456.26,91.44V102c0,2.55,2.19,2.79,6.11,2.55v8.08c-11.63,1.18-15-2.32-15-10.63V91.44H442.6V82.89h4.75V77.25l8.91-2.67v8.31h6.11v8.55Z"/><path class="cls-6" d="M481.91,105.45a7.79,7.79,0,0,0,5.7-2.25l7.12,4.09c-2.91,4-7.3,6.12-12.94,6.12-10.15,0-16.45-6.83-16.45-15.68s6.41-15.67,15.79-15.67c8.67,0,15.09,6.71,15.09,15.67a17.15,17.15,0,0,1-.36,3.57H474.78C475.91,104.38,478.64,105.45,481.91,105.45Zm5.46-10.8A6.1,6.1,0,0,0,481.08,90c-3.39,0-5.64,1.66-6.48,4.69Z"/><path class="cls-6" d="M542.53,103.43v9.15H516.4V71h25.83v9.14H525.9v6.89h14.84v9H525.9v7.36Z"/><path class="cls-6" d="M545.5,97.73a15.7,15.7,0,0,1,29.15-8.07l-7.78,4.51a6.14,6.14,0,0,0-5.76-3.32,6.89,6.89,0,0,0,0,13.77,6.1,6.1,0,0,0,5.76-3.32l7.78,4.45a15.17,15.17,0,0,1-13.42,7.66A15.38,15.38,0,0,1,545.5,97.73Z"/><path class="cls-6" d="M606.59,82.89v29.69h-8.91v-2.79c-1.6,2.19-4.57,3.62-8.49,3.62-6,0-11.1-4.28-11.1-12.29V82.89H587V99.81c0,3.68,2.31,5.4,5.16,5.4,3.27,0,5.52-1.9,5.52-6.11V82.89Z"/><path class="cls-6" d="M643.58,82.89v29.69h-8.91v-2.79c-2,2.25-4.87,3.62-8.84,3.62-7.78,0-14.19-6.83-14.19-15.68s6.41-15.67,14.19-15.67c4,0,6.88,1.36,8.84,3.62V82.89Zm-8.91,14.84c0-4.45-3-7.24-7.06-7.24s-7.07,2.79-7.07,7.24,3,7.25,7.07,7.25S634.67,102.19,634.67,97.73Z"/><path class="cls-6" d="M680.57,71v41.56h-8.91v-2.79c-2,2.25-4.87,3.62-8.85,3.62-7.77,0-14.18-6.83-14.18-15.68S655,82.06,662.81,82.06c4,0,6.89,1.36,8.85,3.62V71Zm-8.91,26.71c0-4.45-3-7.24-7.06-7.24s-7.07,2.79-7.07,7.24,3,7.25,7.07,7.25S671.66,102.19,671.66,97.73Z"/><path class="cls-6" d="M685.61,97.73a15.74,15.74,0,1,1,15.74,15.68A15.56,15.56,0,0,1,685.61,97.73Zm22.57,0a6.83,6.83,0,1,0-6.83,7A6.66,6.66,0,0,0,708.18,97.73Z"/><path class="cls-6" d="M739.94,82.3V92.39c-3.68-.59-8.91.89-8.91,6.77v13.42h-8.9V82.89H731v5.28C732.22,84.2,736.2,82.3,739.94,82.3Z"/></symbol></defs><g id="Capa_2" data-name="Capa 2"><g id="Capa_3_copia_10" data-name="Capa 3 copia 10"><use width="758.92" height="303.99" transform="scale(0.73)" xlink:href="#texto_precio"/></g></g></svg>