<svg id="Capa_1" data-name="Capa 1" xmlns="http://www.w3.org/2000/svg" viewBox="0 0 120 120"><defs><style>.cls-1{fill:#7a7a7a;}</style></defs><path class="cls-1" d="M60,62.9A30.85,30.85,0,1,1,90.86,32.05,30.89,30.89,0,0,1,60,62.9ZM60,11A21.06,21.06,0,1,0,81.08,32.07,21.09,21.09,0,0,0,60,11Z"/><path class="cls-1" d="M60,60.79A28.74,28.74,0,1,1,88.76,32.05,28.77,28.77,0,0,1,60,60.79ZM60,8.9A23.17,23.17,0,1,0,83.18,32.07,23.19,23.19,0,0,0,60,8.9Z"/><path class="cls-1" d="M7.18,118.8a4.92,4.92,0,0,1-3.74-1.7,5,5,0,0,1-1.13-3.88,58.26,58.26,0,0,1,115.38,0,4.94,4.94,0,0,1-1.13,3.87,4.86,4.86,0,0,1-3.71,1.71ZM106.89,109a48.47,48.47,0,0,0-93.75,0Z"/><path class="cls-1" d="M7.18,116.69a2.79,2.79,0,0,1-2.78-3.18,56.15,56.15,0,0,1,111.2,0,2.79,2.79,0,0,1-2.75,3.18Zm102.37-5.57a50.58,50.58,0,0,0-99.07,0Z"/></svg>