<svg xmlns="http://www.w3.org/2000/svg" viewBox="0 0 88 88"><defs><style>.cls-1,.cls-2{fill:#f67b00;}.cls-1{opacity:0.35;}.cls-3{fill:none;}</style></defs><g id="Capa_2" data-name="Capa 2"><g id="Capa_3_copia_10" data-name="Capa 3 copia 10"><path class="cls-1" d="M10,39.85s8.46,2.28,21.16,19.89c0,0,4.23-23.69,45.7-53.37,0,0-12.73,9.85-24.57,29.49-6,10-10.7,23.38-17.32,39.86-5.31,12.46-7.25,3.17-11-9C21,56.71,16.69,44.88,10,39.85Z"/><path class="cls-2" d="M77.66,21.28l-1.17,1.6.89-.84c1.26.46.1,1.44-.27,1.76C78.87,23.13,77.5,22.09,77.66,21.28Z"/><path class="cls-2" d="M75.06,22.85c-.93.08-.48.89,0,1.09C75,23.56,75.49,23.05,75.06,22.85Z"/><path class="cls-2" d="M31.19,57.22c.27-.2.49-.46.72-.34C31.75,56.52,31.56,56.4,31.19,57.22Z"/><polygon class="cls-2" points="31.91 56.88 31.99 57.1 31.99 56.92 31.91 56.88"/><path class="cls-2" d="M49.48,46c0-1.09.6-1.24.85-2.08l1.14.33c.34-.84-.45-.86-.43-1.69,1.11-.12,1.82-1.77,2.13-2,.55.16.27.73.41,1,.44-1-.36-1.7.57-2.65l.22.21c1.48-3.1,5-5.31,8-7.68-.25.06-.3-.17-.49-.31,3.27-2.38,7.8-3.57,10.31-7.06-2.14.71-6.45.62-8,3.1-1.17-.49-1.85,1.19-2.65.37-3.16,1.25-3.58,3.27-6,5.15-.48.11-.62-.46-1-.8a16,16,0,0,1,1.79-1.89,8.64,8.64,0,0,0-1.56.51c.22-.89,1.92-1.34,1.57-2.27-1.45,2-4.74,3.7-5.46,5.85a20.55,20.55,0,0,0,2.54-1.85c.6,0,1.33-.24,1.61.22-1.47,3-3.94,3.79-5.61,6.43-.43.62-1.21,1.28-1.7,1,.21-.48-.39-.49-.29-.95-.42,1.07,1.37,1.31.15,2.27L46.25,40c1.12,1.67-1.43,1.35-1.18,2.92-.85-.1-.76-.94-.28-1.68-.85.61,0,1.31-.51,1.92l-.85-1.5c.72,1.54-1.14,1.07-1.86,1.2.28.26,1.55.54.84,1.35-.44.26-.64-.13-.89-.16a1.45,1.45,0,0,1,.37,1.56c-.52-.15-.46-.81-.9-1.13-.23.49-.36.92-.93,1-.08,1.05.69.32.91,1.1-1,1.08-1.67-.75-2.92-.8a22.59,22.59,0,0,1,.42-3.52l-.76,2.14c-.47-.42-1.68.83-1.62-.51-1.65,1.72-2.38,4.48-2.67,6.66.31-.2.59-.51.92-.3-.09,1.15-.76.75-1.27.79.08.91,1.11,1.21,1.66,1.95-1.52,1.19-1,1.61-2.7,2.54l1,.24c-1.13.69.36,1.31-.57,2.14-.24,0-.37-.48-.51-.87.05,1-1.14.59-1,1.59l-.91-1c-.23.73-.14,1.89-1,1.25.87,1.59-.22,3.69.13,5.41L28.28,64c.49.55.23,1.3.09,2.09h0a25.45,25.45,0,0,0-8.66-9.27c-.66-.65-2.59-.46-3.76-.74.77,1.1,1.31.72,2.26,1.62.45.93-.25,2-.31,3.08l.51-1c1.49.4.12,1,1.59,1.11l-1.37,1c.91-.27.86.84.68,1.37l1.15-.38c-.1,1-.05,1.52-.85,2.27l.88-.6c-.43.59,1.62,2.55-.46,2.58.33.09.91,0,1,.54l-.92.54c.58.51,1.14,1.15.69,1.58a1.94,1.94,0,0,0-1.37-.06c1.17,2.83,3.44-.88,4.74,1.65l-.65.24,1,.37-.49,1c1.3,0,1.63.94,1.95,2.1a9.52,9.52,0,0,0,1.43,2.74c.54.85,3.73,1.69,5.22.55s1.07-1,1.33-1.31a4.54,4.54,0,0,0,.4-1.58c.29-1.43,1.65-1.69,1.84-3.29l-1.07-.09c1.25-.9,2.66-4.63,5.29-5-.63-1.09-.25,0-1.07-.14-.73-2.06,1-1.79,1.83-2.56-.24-1.19-.6.73-1.24,0,1.22-1.45-1-1.68.31-3.54.65,0,.22.62.57.95-.58-1.67.8-4.17,1.48-6.2,1.56-2.07,3.52-5.08,5.73-7l-.31-.24c1.48-.41,1.45-1.85,2.58-2.67Z"/><path class="cls-2" d="M56.36,26.94l-.71-.63-1.07,1.27C55.54,27.88,55.49,27.21,56.36,26.94Z"/><polygon class="cls-2" points="57.49 29.42 57.96 28.7 56.88 29.35 57.49 29.42"/><polygon class="cls-2" points="42.48 40.9 42.72 40.82 43.84 38.05 42.48 40.9"/><path class="cls-2" d="M30.34,56.85c-.35-.46,0-.87-.2-1.31V57Z"/><path class="cls-2" d="M23.64,69c1.53.78-.19,1,1.4.58C24.91,68.78,24.14,69.34,23.64,69Z"/><path class="cls-2" d="M25.5,72.07a.86.86,0,0,0-.28-.86C24.41,71.55,25.24,71.73,25.5,72.07Z"/><path class="cls-2" d="M23,80.79a2.66,2.66,0,0,1-2,.81,2.63,2.63,0,0,1-1.95-.81,2.69,2.69,0,0,1-.8-2,2.65,2.65,0,0,1,.81-1.94,2.61,2.61,0,0,1,1.94-.8,2.75,2.75,0,0,1,2,4.7ZM19.4,77.16a2.29,2.29,0,0,0-.69,1.68,2.33,2.33,0,0,0,.69,1.69,2.35,2.35,0,0,0,3.35,0,2.33,2.33,0,0,0,.7-1.69,2.3,2.3,0,0,0-.7-1.68,2.35,2.35,0,0,0-3.35,0Zm1.62.15a2.39,2.39,0,0,1,.83.11.76.76,0,0,1,.47.77.67.67,0,0,1-.3.6,1.27,1.27,0,0,1-.43.14.76.76,0,0,1,.52.3.83.83,0,0,1,.16.47v.22a1.7,1.7,0,0,0,0,.22.47.47,0,0,0,0,.16l0,0h-.5v-.4a.73.73,0,0,0-.29-.69,1.2,1.2,0,0,0-.59-.1H20.5v1.19H20v-3Zm.58.48a1.46,1.46,0,0,0-.65-.11H20.5v1.09H21a1.6,1.6,0,0,0,.51-.06.55.55,0,0,0,.11-.92Z"/><rect class="cls-3" width="88" height="88"/></g></g></svg>